<?xml version="1.0" encoding="UTF-8" standalone="no"?>
<!-- Generator: Adobe Illustrator 14.0.0, SVG Export Plug-In . SVG Version: 6.00 Build 43363)  -->

<svg
   xmlns:dc="http://purl.org/dc/elements/1.1/"
   xmlns:cc="http://creativecommons.org/ns#"
   xmlns:rdf="http://www.w3.org/1999/02/22-rdf-syntax-ns#"
   xmlns:svg="http://www.w3.org/2000/svg"
   xmlns="http://www.w3.org/2000/svg"
   xmlns:sodipodi="http://sodipodi.sourceforge.net/DTD/sodipodi-0.dtd"
   xmlns:inkscape="http://www.inkscape.org/namespaces/inkscape"
   version="1.0"
   id="Layer_1"
   x="0px"
   y="0px"
   width="50"
   height="30"
   viewBox="0 0 49.999998 30"
   enable-background="new 0 0 63.491 100"
   xml:space="preserve"
   inkscape:version="0.48.1 "
   sodipodi:docname="bed.svg"><metadata
   id="metadata15"><rdf:RDF><cc:Work
       rdf:about=""><dc:format>image/svg+xml</dc:format><dc:type
         rdf:resource="http://purl.org/dc/dcmitype/StillImage" /><dc:title /></cc:Work></rdf:RDF></metadata><defs
   id="defs13"><inkscape:perspective
     id="perspective2835"
     inkscape:persp3d-origin="0.5 : 0.33333333 : 1"
     inkscape:vp_z="1 : 0.5 : 1"
     inkscape:vp_y="0 : 1000 : 0"
     inkscape:vp_x="0 : 0.5 : 1"
     sodipodi:type="inkscape:persp3d" /><inkscape:perspective
     id="perspective2849"
     inkscape:persp3d-origin="0.5 : 0.33333333 : 1"
     inkscape:vp_z="1 : 0.5 : 1"
     inkscape:vp_y="0 : 1000 : 0"
     inkscape:vp_x="0 : 0.5 : 1"
     sodipodi:type="inkscape:persp3d" /><inkscape:perspective
     id="perspective2829"
     inkscape:persp3d-origin="0.5 : 0.33333333 : 1"
     inkscape:vp_z="1 : 0.5 : 1"
     inkscape:vp_y="0 : 1000 : 0"
     inkscape:vp_x="0 : 0.5 : 1"
     sodipodi:type="inkscape:persp3d" /><inkscape:perspective
     id="perspective2848"
     inkscape:persp3d-origin="0.5 : 0.33333333 : 1"
     inkscape:vp_z="1 : 0.5 : 1"
     inkscape:vp_y="0 : 1000 : 0"
     inkscape:vp_x="0 : 0.5 : 1"
     sodipodi:type="inkscape:persp3d" /></defs><sodipodi:namedview
   pagecolor="#ffffff"
   bordercolor="#666666"
   borderopacity="1"
   objecttolerance="10"
   gridtolerance="10"
   guidetolerance="10"
   inkscape:pageopacity="0"
   inkscape:pageshadow="2"
   inkscape:window-width="708"
   inkscape:window-height="623"
   id="namedview11"
   showgrid="false"
   inkscape:zoom="2.91"
   inkscape:cx="31.745501"
   inkscape:cy="44.840206"
   inkscape:window-x="100"
   inkscape:window-y="100"
   inkscape:window-maximized="0"
   inkscape:current-layer="Layer_1" />




<path
   style="fill:#133b71;fill-opacity:1"
   d="m 45.3772,10.242023 h -1.435993 c -0.833148,0 -1.388434,0.786471 -1.388434,1.664536 v 6.261826 H 13.906018 c 0,0 -2.761457,0.32366 -4.6532143,-1.309611 -2.0331119,-1.755249 -1.9283078,-4.22387 -1.9283078,-4.22387 V 4.2223909 c 0,-0.8780647 -0.4667746,-1.466377 -1.3003638,-1.466377 H 4.4560334 c -0.8335892,0 -1.5350722,0.5883123 -1.5350722,1.466377 V 27.415808 H 6.9211321 L 7.9810629,22.57192 H 41.896205 l 1.059932,4.843888 h 4.000168 V 11.906559 c 0,-0.878065 -0.745518,-1.664536 -1.579105,-1.664536 z"
   id="path3"
   inkscape:connector-curvature="0" /><path
   style="fill:#133b71;fill-opacity:1"
   d="m 39.78427,13.491831 c -0.342155,-0.764013 -1.338674,-1.393718 -2.427668,-1.642518 -2.14232,-0.490113 -2.682194,-0.837552 -7.840053,-0.837552 -3.968465,0 -6.793774,0.939714 -8.499702,1.593639 -1.0454,0.400281 -1.802808,1.286713 -1.802808,1.960893 0,0.01189 0,0.0163 0,0.02598 0,0.0022 0,0.02642 0,0.0709 0,0.0093 0,0.01365 0,0.02598 0,1.148883 0.942797,1.71782 2.058652,1.71782 h 16.664297 c 1.115415,0 2.022102,-0.506407 2.022102,-1.65573 -4.4e-4,-0.276101 -0.0339,-0.944998 -0.17482,-1.259411 z"
   id="path5"
   inkscape:connector-curvature="0" /><path
   style="fill:#133b71;fill-opacity:1"
   d="M 16.445537,12.850237 C 15.513308,12.08138 14.683682,11.408519 13.248571,10.55027 11.959215,9.7792113 10.467738,9.7545516 9.8129334,10.671807 c -0.6239809,0.874102 -0.03126,2.805933 0.8384326,3.771629 1.066977,1.184991 2.660176,1.784312 3.858377,1.820861 1.003565,0.03039 2.306571,0.263332 2.938479,-0.801884 0.459729,-0.773261 -0.147518,-1.907171 -1.002685,-2.612176 z"
   id="path7"
   inkscape:connector-curvature="0" /></svg>