<?xml version="1.0" encoding="UTF-8" standalone="no"?>
<svg
   xmlns:dc="http://purl.org/dc/elements/1.1/"
   xmlns:cc="http://creativecommons.org/ns#"
   xmlns:rdf="http://www.w3.org/1999/02/22-rdf-syntax-ns#"
   xmlns:svg="http://www.w3.org/2000/svg"
   xmlns="http://www.w3.org/2000/svg"
   xmlns:sodipodi="http://sodipodi.sourceforge.net/DTD/sodipodi-0.dtd"
   xmlns:inkscape="http://www.inkscape.org/namespaces/inkscape"
   version="1.1"
   id="Layer_1"
   x="0px"
   y="0px"
   width="30"
   height="30"
   viewBox="0 0 30 30"
   enable-background="new 0 0 100 100"
   xml:space="preserve"
   inkscape:version="0.48.1 "
   sodipodi:docname="fastcarriage.svg"><metadata
   id="metadata17"><rdf:RDF><cc:Work
       rdf:about=""><dc:format>image/svg+xml</dc:format><dc:type
         rdf:resource="http://purl.org/dc/dcmitype/StillImage" /><dc:title /></cc:Work></rdf:RDF></metadata><defs
   id="defs15"><inkscape:perspective
     id="perspective3120"
     inkscape:persp3d-origin="0.5 : 0.33333333 : 1"
     inkscape:vp_z="1 : 0.5 : 1"
     inkscape:vp_y="0 : 1000 : 0"
     inkscape:vp_x="0 : 0.5 : 1"
     sodipodi:type="inkscape:persp3d" /></defs><sodipodi:namedview
   pagecolor="#ffffff"
   bordercolor="#666666"
   borderopacity="1"
   objecttolerance="10"
   gridtolerance="10"
   guidetolerance="10"
   inkscape:pageopacity="0"
   inkscape:pageshadow="2"
   inkscape:window-width="1348"
   inkscape:window-height="824"
   id="namedview13"
   showgrid="false"
   inkscape:zoom="6.8438889"
   inkscape:cx="-3.8937139"
   inkscape:cy="-6.5292096"
   inkscape:window-x="25"
   inkscape:window-y="25"
   inkscape:window-maximized="0"
   inkscape:current-layer="Layer_1" />





<path
   style="fill:#133b71;fill-opacity:1;stroke:none"
   d="M 7.9036857,17.39565 C 4.88119,16.585779 1.773281,18.38013 0.96340293,21.402626 0.15352471,24.425121 1.9478834,27.53303 4.9703712,28.342908 7.9928745,29.152779 11.100784,27.358428 11.910654,24.335932 12.720532,21.313437 10.926181,18.205528 7.9036857,17.39565 z m 0.1332184,1.071183 c 0.9274194,0.337674 1.6896976,0.945234 2.2249289,1.708975 L 7.7919666,21.601782 C 7.6518344,21.450226 7.4862306,21.323277 7.298119,21.224036 L 8.0369041,18.466833 z M 7.1734594,18.238831 c 0.00455,7.27e-4 0.00826,0.003 0.012584,0.003 l -0.7413091,2.766643 c -0.2027804,-0.0015 -0.4013988,0.02979 -0.5891691,0.09092 l -1.425982,-2.469873 c 0.8326359,-0.393689 1.7842003,-0.546482 2.7439141,-0.391028 z m 3.5269566,2.696632 c 0.37786,0.834395 0.51048,1.783093 0.342291,2.737576 L 8.2855107,22.934247 c 0.00606,-0.192713 -0.017436,-0.38206 -0.067697,-0.562788 L 10.700454,20.935463 z M 3.6744919,19.076402 5.1073573,21.5582 C 4.9811739,21.685399 4.8741398,21.834037 4.7880289,21.997101 L 2.0308331,21.258309 c 0.3282208,-0.901447 0.9098393,-1.649231 1.6436588,-2.181907 z m -1.8674533,3.029674 2.7666112,0.74131 c -7.581e-4,0.194373 0.026836,0.385297 0.083412,0.566987 l -2.476977,1.42743 C 1.7928169,24.010403 1.6488488,23.06178 1.8070386,22.106076 z m 6.2389928,1.671731 2.7666116,0.741309 c -0.344216,0.9157 -0.9533313,1.66932 -1.7147979,2.19647 L 7.6718631,24.24572 c 0.1480465,-0.132824 0.2736765,-0.291029 0.3741683,-0.467913 z m -2.9415927,0.388489 c 0.1200125,0.122537 0.2568015,0.228388 0.4098363,0.314893 L 4.7729657,27.2478 C 3.8841177,26.912984 3.1467581,26.330282 2.6226403,25.599161 l 2.4817984,-1.432865 z m 1.7962917,0.498123 1.4328657,2.481798 C 7.5053723,27.515382 6.566968,27.645189 5.6221809,27.478713 L 6.3609734,24.72151 c 0.185026,0.0068 0.3656247,-0.01114 0.539757,-0.05708 z"
   id="path2848"
   inkscape:connector-curvature="0" /><path
   style="fill:#133b71;fill-opacity:1;stroke:none"
   d="m 18.01771,17.518536 c -2.891188,1.196843 -4.265233,4.51208 -3.068398,7.40326 1.196843,2.891188 4.512081,4.265241 7.403268,3.068398 2.89118,-1.196843 4.265233,-4.512081 3.06839,-7.403261 -1.196843,-2.891187 -4.512073,-4.265241 -7.40326,-3.068397 z m 0.757615,0.768888 c 0.941399,-0.29648 1.916017,-0.278308 2.805509,0.0023 l -1.091954,2.634629 c -0.203433,-0.03495 -0.412096,-0.03495 -0.621759,7.58e-4 l -1.091796,-2.637418 z m -0.823887,0.344565 c 0.0038,-0.0023 0.0082,-0.003 0.01198,-0.0053 l 1.095517,2.646416 c -0.162033,0.121946 -0.300376,0.267923 -0.412171,0.430707 l -2.634631,-1.091968 c 0.421087,-0.819127 1.083146,-1.519477 1.939275,-1.980196 z m 4.439729,-0.0068 c 0.807627,0.432124 1.49023,1.10419 1.937667,1.963912 l -2.637418,1.091788 c -0.112379,-0.156681 -0.24637,-0.29253 -0.396244,-0.405341 l 1.095995,-2.650359 z m -6.706368,2.800786 2.64735,1.097238 c -0.02267,0.177726 -0.01713,0.360804 0.01372,0.5426 l -2.637411,1.091788 c -0.288178,-0.91504 -0.281765,-1.862352 -0.02365,-2.731626 z m 0.362032,3.540518 2.646424,-1.095517 c 0.117549,0.154801 0.255778,0.289392 0.411246,0.399124 l -1.096715,2.640117 c -0.813274,-0.42402 -1.504838,-1.089119 -1.960955,-1.943724 z m 5.967946,-2.470503 2.646417,-1.095517 c 0.284161,0.936077 0.259485,1.904766 -0.02388,2.786473 l -2.634628,-1.091962 c 0.03662,-0.195495 0.04003,-0.397487 0.01213,-0.599001 z m -2.097668,2.09848 c 0.169796,0.02418 0.342761,0.02494 0.516832,4.17e-4 l 1.095518,2.646417 c -0.909051,0.275268 -1.848759,0.261661 -2.709588,5.23e-4 l 1.097238,-2.647357 z m 1.728481,-0.697954 2.647356,1.097238 c -0.43251,0.796976 -1.098125,1.471081 -1.949114,1.913977 l -1.091795,-2.637418 c 0.151117,-0.107012 0.283319,-0.231391 0.393553,-0.373797 z"
   id="path2848-9"
   inkscape:connector-curvature="0" /><path
   style="fill:#133b71;fill-opacity:1;stroke:none"
   d="m 2.1019112,16.651968 0,1.769834 c 0.8731783,-0.943066 2.0514104,-1.56998 3.3329922,-1.769834 l -3.3329922,0 z m 5.1027282,0 c 0.1983835,0.03101 0.3981469,0.07073 0.5964697,0.123401 1.2286902,0.326227 2.2564429,1.025758 2.9921569,1.941943 l 4.765176,0 c 0.585045,-0.73241 1.361438,-1.332063 2.294096,-1.714624 0.403946,-0.165694 0.815435,-0.280779 1.228978,-0.35072 l -11.8768766,0 z"
   id="rect2959"
   sodipodi:nodetypes="cccccsccscc"
   inkscape:connector-curvature="0" /><path
   style="fill:#133b71;fill-opacity:1;stroke:none"
   d="m 21.692614,14.793725 0,2.120556 c 1.212346,0.269476 2.325739,0.929845 3.136989,1.906221 1.181196,-1.342259 1.81159,-2.684518 0.938502,-4.026777 l -4.075491,0 z"
   id="rect2987"
   sodipodi:nodetypes="ccccc"
   inkscape:connector-curvature="0" /><path
   style="fill:#133b71;fill-opacity:1;stroke:none"
   d="m 24.090727,7.929395 c -0.829315,0 -1.497053,0.6677375 -1.497053,1.497053 l 0,3.611111 c 0,0.829315 0.667738,1.497052 1.497053,1.497052 0.31099,0 0.598986,-0.0922 0.837829,-0.253299 l 2.058855,0.470878 -0.467633,2.766785 c -0.05519,0.327872 0.09692,0.636064 0.357217,0.779373 0.02327,0.223074 0.26367,0.447642 0.60402,0.539067 l 0.818339,0.220831 c 0.400459,0.10758 0.778668,-0.01304 0.847578,-0.269538 0.06891,-0.256491 -0.200317,-0.548399 -0.600768,-0.655979 l -0.698197,-0.188346 c 0.02653,-0.05974 0.04374,-0.123584 0.05519,-0.191599 l 0.47087,-2.792765 c 0.02737,-0.162587 0.0038,-0.322217 -0.05845,-0.457884 0.02358,-0.04692 0.03972,-0.0993 0.05193,-0.152625 0.0872,-0.379301 -0.167424,-0.757919 -0.571544,-0.850823 l -2.208228,-0.509835 0,-1.932209 2.990853,-1.227515 C 28.922493,9.6879269 29.08674,9.2962316 28.945546,8.952326 28.804345,8.6084204 28.41265,8.4441735 28.068744,8.5853746 l -2.48101,1.0196784 0,-0.178605 c 0,-0.8293155 -0.667737,-1.497053 -1.497052,-1.497053 z"
   id="rect3012"
   inkscape:connector-curvature="0" /><path
   sodipodi:type="arc"
   style="fill:#133b71;fill-opacity:1;stroke:none"
   id="path3071"
   sodipodi:cx="334.30316"
   sodipodi:cy="410.57959"
   sodipodi:rx="13.411865"
   sodipodi:ry="13.411865"
   d="m 347.71503,410.57959 a 13.411865,13.411865 0 1 1 -26.82373,0 13.411865,13.411865 0 1 1 26.82373,0 z"
   transform="matrix(0.10391686,0,0,0.10391686,-9.9253691,-36.234489)" /><rect
   style="fill:#133b71;fill-opacity:1;stroke:none"
   id="rect3075"
   width="0.54247665"
   height="6.6016207"
   x="24.405987"
   y="10.640785"
   ry="0.41295373"
   transform="matrix(0.95850702,-0.28506892,0.28506892,0.95850702,0,0)" /><path
   style="fill:#133b71;fill-opacity:1;stroke:none"
   d="m 2.79465,7.0507054 c -0.3829622,0 -0.6924735,0.3004522 -0.6924735,0.6722174 l 0,7.8976772 c 0,0.371765 0.3095113,0.668965 0.6924735,0.668965 l 18.024293,0 c 0.382969,0 0.692473,-0.2972 0.692473,-0.668965 l 0,-7.8976772 c 0,-0.3717652 -0.309504,-0.6722174 -0.692473,-0.6722174 l -18.024293,0 z m 15.047009,0.9807204 c 1.414027,0 2.552437,1.1051074 2.552437,2.4777652 l 0,3.149983 c 0,1.372658 -1.13841,2.477765 -2.552437,2.477765 -1.414027,0 -2.552436,-1.105107 -2.552436,-2.477765 l 0,-3.149983 c 0,-1.3726578 1.138409,-2.4777652 2.552436,-2.4777652 z"
   id="rect3083"
   inkscape:connector-curvature="0" /><path
   style="fill:#133b71;fill-opacity:1;stroke:none"
   d="m 6.0441314,3.1278467 -3.8389083,1.2047878 0,0.8605562 c 0,0.3717652 0.3140371,0.6722173 0.7026091,0.6722173 l 18.6784828,0 2.093734,-2.0653515 c 0,-0.3717577 -0.314037,-0.6722098 -0.702609,-0.6722098 l -16.9333086,0 z"
   id="rect3086"
   sodipodi:nodetypes="cccccccc"
   inkscape:connector-curvature="0" /><rect
   style="fill:#133b71;fill-opacity:1;stroke:none"
   id="rect3093"
   width="19.512062"
   height="0.56781137"
   x="2.1019132"
   y="6.1735559"
   ry="0.28390568" /></svg>