<?xml version="1.0" encoding="UTF-8" standalone="no"?>
<!-- Generator: Adobe Illustrator 14.0.0, SVG Export Plug-In . SVG Version: 6.00 Build 43363)  -->

<svg
   xmlns:dc="http://purl.org/dc/elements/1.1/"
   xmlns:cc="http://creativecommons.org/ns#"
   xmlns:rdf="http://www.w3.org/1999/02/22-rdf-syntax-ns#"
   xmlns:svg="http://www.w3.org/2000/svg"
   xmlns="http://www.w3.org/2000/svg"
   xmlns:sodipodi="http://sodipodi.sourceforge.net/DTD/sodipodi-0.dtd"
   xmlns:inkscape="http://www.inkscape.org/namespaces/inkscape"
   version="1.0"
   id="Layer_1"
   x="0px"
   y="0px"
   width="30"
   height="30"
   viewBox="0 0 29.999999 30"
   enable-background="new 0 0 63.491 100"
   xml:space="preserve"
   inkscape:version="0.48.1 "
   sodipodi:docname="slowover.svg"><metadata
   id="metadata15"><rdf:RDF><cc:Work
       rdf:about=""><dc:format>image/svg+xml</dc:format><dc:type
         rdf:resource="http://purl.org/dc/dcmitype/StillImage" /><dc:title></dc:title></cc:Work></rdf:RDF></metadata><defs
   id="defs13"><inkscape:perspective
     id="perspective4260"
     inkscape:persp3d-origin="0.5 : 0.33333333 : 1"
     inkscape:vp_z="1 : 0.5 : 1"
     inkscape:vp_y="0 : 1000 : 0"
     inkscape:vp_x="0 : 0.5 : 1"
     sodipodi:type="inkscape:persp3d" /><inkscape:perspective
     id="perspective4422"
     inkscape:persp3d-origin="0.5 : 0.33333333 : 1"
     inkscape:vp_z="1 : 0.5 : 1"
     inkscape:vp_y="0 : 1000 : 0"
     inkscape:vp_x="0 : 0.5 : 1"
     sodipodi:type="inkscape:persp3d" /></defs><sodipodi:namedview
   pagecolor="#ffffff"
   bordercolor="#666666"
   borderopacity="1"
   objecttolerance="10"
   gridtolerance="10"
   guidetolerance="10"
   inkscape:pageopacity="0"
   inkscape:pageshadow="2"
   inkscape:window-width="1252"
   inkscape:window-height="814"
   id="namedview11"
   showgrid="false"
   inkscape:zoom="2.5299531"
   inkscape:cx="86.711093"
   inkscape:cy="-17.376628"
   inkscape:window-x="251"
   inkscape:window-y="228"
   inkscape:window-maximized="0"
   inkscape:current-layer="Layer_1"
   showguides="true"
   inkscape:guide-bbox="true" />




<path
   style="fill:#133b71;fill-opacity:1;stroke:none"
   d="m 27.421299,14.614429 c -0.196909,3.436501 -1.535056,3.901848 -3.913097,3.980845 l -4.419371,0.03633 c 0.779041,2.306079 1.565416,5.086044 2.432629,7.089498 l 0.260104,0.01203 4.562875,-0.07516 c 2.09458,-1.686814 2.686332,-5.895098 2.764299,-10.968366 l -1.687439,-0.07516 z"
   id="path4411"
   inkscape:connector-curvature="0"
   sodipodi:nodetypes="ccccccccc" /><path
   style="fill:#133b71;fill-opacity:1;stroke:none"
   d="m 1.721933,15.609193 c 0.082395,2.186739 1.0337773,6.643391 1.5982789,8.934883 l 14.8547971,0.799537 c 0.197682,-1.414236 -0.469148,-2.973525 -0.371215,-4.218371 -0.164013,-0.867002 -0.325749,-1.733776 -0.489763,-2.600778 l -0.653032,0.02707 c 1.800072,3.943931 -9.8920076,3.040723 -9.8920076,-1.814817 L 1.7218723,15.60921 z"
   id="path4409"
   sodipodi:nodetypes="ccccccccc"
   inkscape:connector-curvature="0" /><path
   style="fill:#133b71;fill-opacity:1;stroke:none"
   d="m 17.758897,16.628662 c -0.350751,0.07063 -0.04713,0.618812 -0.02767,0.847883 0.538161,1.858667 0.455293,2.890366 0.533191,4.63038 0.266459,0.876132 0.815602,3.780952 0.51193,4.669386 0.325845,0.177299 1.156696,0.0266 1.527359,0.12974 0.248336,-0.07128 1.127074,0.30921 0.795046,-0.192884 -1.092291,-3.517214 -2.315547,-6.705261 -3.104655,-10.081503 -0.0778,-0.01134 -0.157196,-0.01392 -0.23521,-0.0031 l 0,-5e-6 z"
   id="rect4295"
   sodipodi:nodetypes="cccccccccc"
   inkscape:connector-curvature="0" /><rect
   style="color:#000000;fill:#133b71;fill-opacity:1;fill-rule:nonzero;stroke:none;stroke-width:2.70000005;marker:none;visibility:visible;display:inline;overflow:visible;enable-background:accumulate"
   id="rect2998"
   width="1.1516904"
   height="10.088881"
   x="-15.838997"
   y="10.377756"
   ry="0.6257109"
   transform="scale(-1,1)" /><rect
   style="color:#000000;fill:#133b71;fill-opacity:1;fill-rule:nonzero;stroke:none;stroke-width:2.70000005;marker:none;visibility:visible;display:inline;overflow:visible;enable-background:accumulate"
   id="rect3768"
   width="9.205246"
   height="1.2523687"
   x="-19.80118"
   y="9.0014029"
   ry="0.33062783"
   transform="matrix(-0.99974928,0.02239141,0.01896602,0.99982013,0,0)"
   rx="0.50052619" /><rect
   style="color:#000000;fill:#133b71;fill-opacity:1;fill-rule:nonzero;stroke:none;stroke-width:2.70000005;marker:none;visibility:visible;display:inline;overflow:visible;enable-background:accumulate"
   id="rect2998-3"
   width="1.1516904"
   height="2.1977634"
   x="-15.838997"
   y="6.1443963"
   ry="0.55042183"
   transform="scale(-1,1)" /></svg>