<?xml version="1.0" encoding="UTF-8" standalone="no"?>
<!-- Generator: Adobe Illustrator 14.0.0, SVG Export Plug-In . SVG Version: 6.00 Build 43363)  -->

<svg
   xmlns:dc="http://purl.org/dc/elements/1.1/"
   xmlns:cc="http://creativecommons.org/ns#"
   xmlns:rdf="http://www.w3.org/1999/02/22-rdf-syntax-ns#"
   xmlns:svg="http://www.w3.org/2000/svg"
   xmlns="http://www.w3.org/2000/svg"
   xmlns:sodipodi="http://sodipodi.sourceforge.net/DTD/sodipodi-0.dtd"
   xmlns:inkscape="http://www.inkscape.org/namespaces/inkscape"
   version="1.0"
   id="Layer_1"
   x="0px"
   y="0px"
   width="30"
   height="30"
   viewBox="0 0 29.999999 30"
   enable-background="new 0 0 63.491 100"
   xml:space="preserve"
   inkscape:version="0.48.1 "
   sodipodi:docname="foot.svg"><metadata
   id="metadata15"><rdf:RDF><cc:Work
       rdf:about=""><dc:format>image/svg+xml</dc:format><dc:type
         rdf:resource="http://purl.org/dc/dcmitype/StillImage" /><dc:title /></cc:Work></rdf:RDF></metadata><defs
   id="defs13" /><sodipodi:namedview
   pagecolor="#ffffff"
   bordercolor="#666666"
   borderopacity="1"
   objecttolerance="10"
   gridtolerance="10"
   guidetolerance="10"
   inkscape:pageopacity="0"
   inkscape:pageshadow="2"
   inkscape:window-width="708"
   inkscape:window-height="480"
   id="namedview11"
   showgrid="false"
   inkscape:zoom="2.91"
   inkscape:cx="31.745501"
   inkscape:cy="45.114433"
   inkscape:window-x="225"
   inkscape:window-y="225"
   inkscape:window-maximized="0"
   inkscape:current-layer="Layer_1" />
<path
   d="m 15.395087,5.47214 c 1.193168,0 2.15666,-0.9698104 2.15666,-2.1629792 0,-1.1931689 -0.963492,-2.1563856 -2.15666,-2.1563856 -1.193169,0 -2.16298,0.9632167 -2.16298,2.1563856 0,1.1931688 0.969811,2.1629792 2.16298,2.1629792 z"
   id="path3"
   inkscape:connector-curvature="0"
   style="fill:#133b71;fill-opacity:1" />
<path
   d="M 11.745523,5.8292939 C 11.828492,5.4974155 11.618046,5.1658118 11.292487,5.0828422 L 9.4932551,4.6490375 C 9.1550578,4.5726615 8.8234541,4.7701951 8.7468033,5.1020735 L 7.2346686,11.361059 c -0.08297,0.331879 0.1211576,0.663482 0.453036,0.746452 l 1.8055505,0.433805 c 0.3255595,0.08297 0.6634819,-0.121158 0.7401329,-0.453036 l 1.512135,-6.2589861 z"
   id="path5"
   inkscape:connector-curvature="0"
   style="fill:#133b71;fill-opacity:1" />
<path
   d="m 20.052649,28.09015 c 0,0.01291 -0.0063,0.02583 -0.0063,0.03187 0,0.274459 0.223358,0.497817 0.497817,0.497817 0.248909,0 0.459355,-0.191489 0.491225,-0.433804 L 24.659385,8.5285534 c 0,-0.012638 0,-0.02555 0,-0.038463 0,-0.2678654 -0.21704,-0.491224 -0.491224,-0.491224 -0.248909,0 -0.440398,0.1914894 -0.491499,0.4338046 L 20.052649,28.09015 z"
   id="path7"
   inkscape:connector-curvature="0"
   style="fill:#133b71;fill-opacity:1" />
<path
   d="m 7.9940328,26.801099 c -0.019231,0.102201 -0.02555,0.204402 -0.02555,0.306328 0,0.842334 0.6763946,1.518728 1.5184537,1.518728 0.6890327,0 1.2698197,-0.459355 1.4547157,-1.084649 l 2.609696,-10.801708 2.488264,10.73797 c 0.15962,0.663482 0.759364,1.148662 1.467353,1.148662 0.842334,0 1.518454,-0.676395 1.518454,-1.518454 0,-0.114838 -0.01264,-0.223084 -0.03159,-0.331603 l -3.413572,-14.266926 0.287097,-1.256908 0.223084,0.989042 c 0.204127,0.644251 0.791233,0.708264 0.791233,0.708264 l 3.515494,0.893159 c 0.07033,0.01291 0.140389,0.01923 0.210721,0.01923 0.574193,0 1.039867,-0.459355 1.039867,-1.033549 0,-0.491224 -0.337922,-0.906072 -0.797277,-1.014317 L 17.8067,11.048687 16.97096,7.6543505 C 16.575343,5.7595115 14.763474,5.8040184 14.763474,5.8040184 13.00243,5.7592368 12.562306,7.6095689 12.562306,7.6095689 L 7.9940328,26.801099 z"
   id="path9"
   inkscape:connector-curvature="0"
   style="fill:#133b71;fill-opacity:1" />
</svg>