<?xml version="1.0" encoding="UTF-8" standalone="no"?>
<svg
   xmlns:dc="http://purl.org/dc/elements/1.1/"
   xmlns:cc="http://creativecommons.org/ns#"
   xmlns:rdf="http://www.w3.org/1999/02/22-rdf-syntax-ns#"
   xmlns:svg="http://www.w3.org/2000/svg"
   xmlns="http://www.w3.org/2000/svg"
   xmlns:sodipodi="http://sodipodi.sourceforge.net/DTD/sodipodi-0.dtd"
   xmlns:inkscape="http://www.inkscape.org/namespaces/inkscape"
   version="1.1"
   id="Layer_1"
   x="0px"
   y="0px"
   width="30"
   height="30"
   viewBox="0 0 43.2 43.2"
   enable-background="new 0 0 144 144"
   xml:space="preserve"
   inkscape:version="0.48.1 "
   sodipodi:docname="horserelay.svg"><metadata
   id="metadata13"><rdf:RDF><cc:Work
       rdf:about=""><dc:format>image/svg+xml</dc:format><dc:type
         rdf:resource="http://purl.org/dc/dcmitype/StillImage" /><dc:title /></cc:Work></rdf:RDF></metadata><defs
   id="defs11">
	
	
</defs><sodipodi:namedview
   pagecolor="#ffffff"
   bordercolor="#666666"
   borderopacity="1"
   objecttolerance="10"
   gridtolerance="10"
   guidetolerance="10"
   inkscape:pageopacity="0"
   inkscape:pageshadow="2"
   inkscape:window-width="1085"
   inkscape:window-height="480"
   id="namedview9"
   showgrid="false"
   inkscape:zoom="2.91"
   inkscape:cx="50"
   inkscape:cy="47.413849"
   inkscape:window-x="125"
   inkscape:window-y="125"
   inkscape:window-maximized="0"
   inkscape:current-layer="Layer_1" />
<path
   inkscape:connector-curvature="0"
   id="path5"
   d="m 21.28903,4.1018167 c 0.461063,0.00741 0.520779,0.1555395 0.611048,0.4754139 0,0.010647 0.0056,0.016202 0.01065,0.021757 0.276823,1.068871 0.640212,2.8080433 1.562338,2.7052761 0.817509,-0.090268 1.419298,-1.5063259 1.69427,-2.4775219 l 0.935089,-0.00926 c 0.218958,-0.00185 0.395792,-0.1791481 0.392552,-0.3976441 -0.0019,-0.2189589 -0.179149,-0.392552 -0.397645,-0.392552 l -0.249511,0.00185 C 25.777455,3.7851827 25.607102,3.1611731 25.500632,2.7704727 25.366849,2.2802456 24.330845,0.82113703 22.751842,1.2516481 c -1.582244,0.4305111 -1.976648,1.7053794 -1.918784,2.3830872 0.01666,0.1759078 -0.0051,0.4596748 0.455972,0.4670814 z"
   style="fill:#133b71;fill-opacity:1" /><path
   inkscape:connector-curvature="0"
   id="path7"
   d="m 41.984577,10.123417 c 0,0 -1.101275,1.155436 -1.927578,1.540582 -0.824452,0.385145 -2.144686,-0.935089 -5.339727,-0.935089 -3.189948,0 -6.272963,5.117527 -6.658108,6.162326 -0.03055,0.08703 -0.06157,0.162947 -0.09767,0.240716 l -1.788241,-1.092017 c 0.06851,-0.375887 -0.09397,-0.772142 -0.44301,-0.976288 L 23.316135,13.64759 V 9.844742 c 0,-1.4211495 -1.151733,-2.574734 -2.571493,-2.574734 -1.42115,0 -2.573346,1.1535845 -2.573346,2.574734 v 8.589391 h -6.952985 c -0.788345,0 -1.4989195,0.218959 -2.1173742,0.576792 -1.9275787,-0.294877 -4.800893,-0.157391 -5.9183702,0.909628 -1.1572878,1.101275 -2.1428342,2.47567 -2.1428342,5.556371 0,3.081163 0,7.430251 0,7.430251 2.1428342,-1.761392 3.1339356,-4.459262 3.1339356,-7.263602 0,-2.80758 1.047114,-6.494699 3.906078,-5.889206 l 0.1013784,-0.05786 c -1.26561,1.17349 -1.9710927,2.905719 -1.9710927,4.021344 0,1.816942 0.5531836,3.028391 2.3127241,5.393888 l 0.027312,0.370795 -1.7502822,2.285875 c -0.075918,0.101378 -0.1374858,0.218958 -0.1735932,0.341631 l -2.8608156,9.517072 c -0.1680382,0.560591 0.1499845,1.151733 0.7087231,1.323475 0.1013784,0.0324 0.2059972,0.04166 0.3036723,0.04166 0.4573602,0 0.878613,-0.293025 1.0142471,-0.750385 l 2.8080433,-9.339776 0.3471864,-0.452268 3.900523,-1.884065 -0.356445,1.685474 c -0.02731,0.137486 -0.02731,0.281915 0,0.421253 l 1.871566,9.574937 c 0.09582,0.506429 0.538834,0.857319 1.037856,0.857319 0.06712,0 0.133783,-0.0056 0.204146,-0.01991 0.571237,-0.112025 0.947587,-0.66706 0.835562,-1.244316 l -1.828978,-9.363847 0.616603,-2.927476 c 0.01065,-0.04537 0.01065,-0.09953 0.0162,-0.146281 l 0.377739,-0.182851 14.85865,0.609196 -3.81905,12.735722 c -0.168038,0.56059 0.151836,1.153584 0.708723,1.318382 0.105082,0.0324 0.205997,0.04537 0.303672,0.04537 0.455509,0 0.877225,-0.296729 1.014248,-0.754089 l 3.75239,-12.502875 3.84451,2.473818 -0.148133,6.012342 c -0.0162,0.580496 0.448565,1.068871 1.034153,1.08137 0.0056,0 0.01805,0 0.02731,0 0.571237,0 1.045262,-0.45736 1.055909,-1.02906 l 0.164335,-6.6058 c 0.01065,-0.370795 -0.175445,-0.717981 -0.484672,-0.920275 l -5.386944,-3.464457 0.191647,-0.375887 c 0,0 1.057761,-3.269107 1.96739,-6.067892 l 3.670917,0.571237 c 0.113877,0.7939 0.624009,0.985547 1.625758,0.985547 1.542433,0 1.48642,-0.991102 1.48642,-1.652607 0,-0.658266 0.495319,-11.556677 0.495319,-11.556677 z M 27.263876,23.656278 c -0.444862,0.907314 -0.717982,1.397541 -0.837414,1.607242 l -2.455765,-1.178582 0.316634,-0.869355 -0.10647,-0.06527 c -0.0019,-0.0019 -3.52047,-2.193292 -4.482871,-2.799248 -0.960086,-0.607344 -1.211449,-1.065167 -1.211449,-1.927578 0,-1.021654 0,-1.596595 0,-1.847958 h 4.499073 c 0,0 -0.0074,1.318383 -0.0074,1.636405 0,0.321726 0.106471,0.929534 1.215152,1.692418 1.061465,0.736035 2.310873,1.510029 2.582141,1.728525 0.217107,0.171742 0.694373,0.573089 0.694373,1.227651 0,0.228217 -0.05601,0.492079 -0.205997,0.795751 z m -0.909629,-5.222145 c -0.826303,0 -2.365033,0 -2.365033,0 0,0 -0.24766,0 -0.672616,0 v -2.607601 l 1.459109,0.857318 c 0.363388,0.213404 0.804546,0.153688 1.101275,-0.113877 l 1.806295,1.101275 c -0.330985,0.511522 -0.746682,0.762885 -1.32903,0.762885 z m 12.001539,3.29827 -3.455662,-0.540685 c 0.54624,-1.683622 1.005452,-3.086718 1.086925,-3.308917 0.218959,-0.604105 0.768439,-0.604105 0.824452,0 0.05601,0.605956 0.826303,1.925727 1.707231,2.587695 -0.09443,0.502263 -0.146744,0.914721 -0.162946,1.261907 z"
   style="fill:#133b71;fill-opacity:1" />
</svg>