<?xml version="1.0" encoding="UTF-8" standalone="no"?>
<svg
   xmlns:dc="http://purl.org/dc/elements/1.1/"
   xmlns:cc="http://creativecommons.org/ns#"
   xmlns:rdf="http://www.w3.org/1999/02/22-rdf-syntax-ns#"
   xmlns:svg="http://www.w3.org/2000/svg"
   xmlns="http://www.w3.org/2000/svg"
   xmlns:sodipodi="http://sodipodi.sourceforge.net/DTD/sodipodi-0.dtd"
   xmlns:inkscape="http://www.inkscape.org/namespaces/inkscape"
   viewBox="-29.9472 60.9866 50 30.000001"
   version="1.0"
   height="30"
   width="50"
   id="svg1926"
   sodipodi:version="0.32"
   inkscape:version="0.48.1 "
   sodipodi:docname="medworld.svg"
   inkscape:output_extension="org.inkscape.output.svg.inkscape">
  <sodipodi:namedview
     inkscape:window-height="878"
     inkscape:window-width="1345"
     inkscape:pageshadow="2"
     inkscape:pageopacity="0.0"
     guidetolerance="10.0"
     gridtolerance="10.0"
     objecttolerance="10000"
     borderopacity="1.0"
     bordercolor="#666666"
     pagecolor="#ffffff"
     id="base"
     inkscape:zoom="6.3218998"
     inkscape:cx="-24.813429"
     inkscape:cy="12.396337"
     inkscape:window-x="75"
     inkscape:window-y="75"
     inkscape:current-layer="svg1926"
     showgrid="false"
     showguides="true"
     inkscape:guide-bbox="true"
     inkscape:window-maximized="0" />
  <metadata
     id="metadata24111">
    <rdf:RDF>
      <cc:Work
         rdf:about="">
        <dc:format>image/svg+xml</dc:format>
        <dc:type
           rdf:resource="http://purl.org/dc/dcmitype/StillImage" />
        <cc:license
           rdf:resource="http://web.resource.org/cc/PublicDomain" />
        <dc:title />
      </cc:Work>
      <cc:License
         rdf:about="http://web.resource.org/cc/PublicDomain">
        <cc:permits
           rdf:resource="http://web.resource.org/cc/Reproduction" />
        <cc:permits
           rdf:resource="http://web.resource.org/cc/Distribution" />
        <cc:permits
           rdf:resource="http://web.resource.org/cc/DerivativeWorks" />
      </cc:License>
    </rdf:RDF>
  </metadata>
  <defs
     id="defs1930" />
  <style
     type="text/css"
     id="style_css_sheet">
/*
 * Below are Cascading Style Sheet (CSS) definitions in use in this file,
 * which allow easily changing how countries are displayed.
 *
 */

/*
 * Circles around small countries
 *
 * Change opacity to 1 to display all circles.
 *
 */
.circle
{
   opacity:0;
   fill:#b9b9b9;
   fill-opacity:1;
   stroke:black;
   stroke-width:0.99986893;
   stroke-miterlimit:3.97446823;
   stroke-dasharray:none;
   stroke-opacity:1;
}

/*
 * Land
 */
.land
{
   fill: #b9b9b9;
   fill-opacity: 1;
   stroke: #ffffff;
   stroke-opacity: 1;
   stroke-width: 0.99986997;
   stroke-miterlimit: 3.97446823;
   stroke-dasharray: none;
}

/*
 * Additional style rules
 *
 * The following are examples of colouring countries.  You can substitute these with your own styles to colour the countries on the map.
 *
 * Color a few countries:
 *
 * .gb, .au, .nc
 * {
 *    fill:       #ff0000;
 * }
 *
 * Color a few small country circles (and the countries):
 *
 * .ms, .ky
 * {
 *    opacity:    1;
 *    fill:       #ff0000;
 * }
 *
 */

/*
 * Antarctica
 */

.aq
{
   fill:#e6e6e6;
}

/*
 * Sea
 */

.ocean
{
   opacity: 1;
   color: #000000;
   fill:white;
   fill-opacity:1;
   fill-rule:nonzero;
   stroke:#000000;
   stroke-width:0.5;
   stroke-linecap:butt;
   stroke-linejoin:miter;
   marker:none;
   marker-start:none;
   marker-mid:none;
   marker-end:none;
   stroke-miterlimit:1;
   stroke-dasharray:none;
   stroke-dashoffset:0;
   stroke-opacity:1;
   visibility:visible;
   display:inline;
   overflow:visible;
}

.lake
{
   fill:#ffffff;
   fill-opacity:1;
   stroke:#ffffff;
   stroke-opacity:1;
   stroke-width:0.99986997;
   stroke-miterlimit:3.97446823;
   stroke-dasharray:none;
}
</style>
  <path
     style="fill:#133b71;fill-opacity:1;stroke:none"
     d="m -14.316023,61.297706 c -0.03864,-0.002 -0.07947,0.0055 -0.119946,0.02562 -0.356888,0.04766 -0.350993,0.345008 -0.177858,0.501752 -0.207004,0.266113 0.238269,0.797355 0.512889,0.340612 0.0096,-0.01352 0.01776,-0.02562 0.02481,-0.0403 0.107161,0.03125 0.149743,0.0671 -0.03723,0.190448 -0.188887,0.386083 -0.434578,0.422487 -0.01651,0.443158 0.343369,0.322496 0.910776,0.378521 1.377371,0.483443 1.101686,-0.02288 2.319292,-0.370686 3.0318814,-1.142685 0.1899258,-0.192803 0.3533589,0.346547 0.6411176,0.344274 0.045223,0.01737 0.089831,0.02967 0.1323593,0.03661 0.00226,0.08661 0.00925,0.173186 0.024812,0.260029 -0.1323593,0.133382 -0.1287926,0.349178 0.045523,0.428511 0.02715,0.06888 0.078825,0.127975 0.1489047,0.157485 0.2054162,0.444537 0.5221738,0.863123 0.8313853,1.204943 0.00976,0.01085 0.019151,0.02218 0.028931,0.03297 -0.095261,-0.04849 -0.2178483,-0.07325 -0.3722695,-0.05495 -0.2946233,0.02212 -0.7176288,0.105674 -0.9678803,0.285673 -0.024123,-0.07939 -0.1008996,-0.157937 -0.194402,-0.208757 0.060654,-0.277267 -0.066781,-0.57072 -0.4012213,-0.67023 0.098447,-0.0331 0.1865062,-0.07658 0.2440399,-0.135508 0.028463,0.08329 0.1185076,0.152065 0.2895432,0.172133 0.4377889,0.07431 0.762413,-0.581605 0.1282274,-0.542044 -0.1541963,-0.0035 -0.2774286,0.05617 -0.3515835,0.135509 -0.00624,-0.03365 -0.018458,-0.07111 -0.037231,-0.109882 -0.1983732,-0.147519 -0.464199,-0.152547 -0.7114412,-0.139169 -0.622667,-0.0088 -1.134022,0.285386 -1.472504,0.706848 -0.243901,0.102098 -0.407185,0.272006 -0.355715,0.575006 0.0023,0.01978 0.009,0.04188 0.01252,0.06229 -0.0094,0.02878 -0.02093,0.05886 -0.02893,0.08792 0.01301,0.0055 0.02869,0.0077 0.04554,0.0074 0.05267,0.229985 0.161995,0.483958 0.318486,0.703194 -0.308832,0.107612 -0.291817,0.527607 0.03312,0.578666 0.05957,0.101939 0.177137,0.165761 0.339173,0.109871 0.0142,0.124368 0.02002,0.284781 0.119945,0.340605 0.1858,0.28301 -0.641296,-0.01152 -0.856204,0.08792 -0.39023,0.04188 -0.609885,0.241466 -0.773473,0.494429 -0.08624,-0.06995 -0.191865,-0.129012 -0.318496,-0.168473 -0.169273,-0.06044 -0.358066,-0.09629 -0.541849,-0.08424 -0.08392,0.0048 -0.166691,0.01834 -0.248174,0.03297 -0.01512,-0.03269 -0.0325,-0.06764 -0.05374,-0.102552 0.003,0.04388 0.0084,0.07359 0.01251,0.109882 -0.140879,0.02816 -0.276653,0.06914 -0.409488,0.120858 -0.01466,-0.04772 -0.03305,-0.100541 -0.05373,-0.161146 0.01163,0.06311 0.02637,0.119279 0.03723,0.168473 -0.04638,0.01841 -0.09121,0.03791 -0.136494,0.05858 -0.04124,-0.03041 -0.09183,-0.05068 -0.148904,-0.05858 -0.01737,-0.0175 -0.03026,-0.03255 -0.04963,-0.05131 0.01317,0.01937 0.02079,0.03365 0.03313,0.05131 -0.03621,-0.0035 -0.07486,-0.0048 -0.115818,0.0035 -0.184814,0.0403 -0.255766,0.200681 -0.248174,0.351593 -0.128156,0.08517 -0.252445,0.173664 -0.368125,0.263698 -0.181606,0.136737 -0.112245,0.377284 -0.07444,0.549368 -0.56691,0.0368 -0.862571,0.122988 -0.533573,0.31131 -0.05236,0.03131 -0.07679,0.06606 -0.08271,0.09889 -0.01537,0.0093 -0.03063,0.01917 -0.04554,0.02933 -0.380125,0.0718 -0.747957,0.187214 -1.087835,0.36258 0.04948,0.04278 0.101719,0.0842 0.153048,0.12453 -0.668371,0.09833 -1.198962,0.570818 -1.513874,1.069436 -0.640585,0.271793 -1.611527,-0.35487 -2.117764,0.172132 -0.07863,0.0028 -0.162447,0.01524 -0.24404,0.03297 0.09446,-0.244845 0.04468,-0.495034 -0.297802,-0.637266 -0.06011,-0.02659 -0.122085,-0.0465 -0.186135,-0.06229 0.290047,-0.02665 0.581321,-0.04739 0.87275,-0.06958 0.05383,0.04512 0.129923,0.07684 0.235764,0.08424 0.231124,0.04614 0.411635,-0.03234 0.504629,-0.146498 0.876331,-0.0908 1.731302,-0.256067 2.502434,-0.692205 -0.661232,-0.02548 -0.846395,-0.251919 -0.343317,-0.633606 0.424885,-0.308775 0.379272,-1.010286 -0.264716,-1.018156 -0.403882,0.02501 -0.843253,-3.02e-4 -0.943063,-0.406535 -0.161084,-0.663168 -0.724633,-1.176354 -1.381512,-1.494275 -0.275358,-0.359244 -0.811522,-0.552124 -1.195378,-0.688538 0.413383,-0.316516 1.164571,-1.037902 0.512898,-1.450334 -0.400608,-0.212287 -1.107744,0.03639 -1.311197,-0.01107 0.146224,-0.120381 0.40302,-0.267426 0.583212,-0.406533 0.06134,-0.0092 0.124236,-0.04656 0.182,-0.109882 0.131978,-0.04781 0.210387,-0.170163 0.210946,-0.296654 0.442994,-0.0804 0.304263,-0.624639 -0.169584,-0.531055 -0.01343,0.0035 -0.02444,0.01041 -0.03723,0.01463 -0.08049,-0.115945 -0.193519,-0.188519 -0.297809,-0.102541 -0.155089,0.04017 -0.225373,0.14015 -0.235766,0.245389 -0.281656,-0.03242 -0.347628,0.09582 -0.297812,0.249041 -0.01436,0.01416 -0.02768,0.02563 -0.03723,0.0403 -0.121521,-0.0097 -0.24634,-0.01167 -0.368125,0 -0.669573,0.0568 -1.300657,0.5014 -1.604866,1.054781 -0.05344,-0.02274 -0.120884,-0.03008 -0.198545,-0.01107 -0.01388,0.002 -0.02458,0.008 -0.03723,0.01107 -0.07787,-0.01326 -0.16123,-0.01902 -0.239898,-0.01107 -0.06384,-0.0013 -0.118645,0.0061 -0.169592,0.02197 0.287465,-0.133559 0.516412,-0.376796 0.48808,-0.651914 -0.118757,-0.04931 -0.236285,-0.125935 -0.372261,-0.08057 -0.258914,0.09771 -0.783973,0.306764 -0.835526,0.560357 -0.336613,0.0084 -0.471187,0.333637 -0.326765,0.509079 -0.04739,0.215178 0.15654,0.494328 0.483945,0.472455 0.200514,0.02273 0.280322,-0.279107 0.202679,-0.498091 0.04956,-0.064 0.07616,-0.140859 0.07859,-0.216084 0.06461,-0.01178 0.1313,-0.03153 0.194403,-0.05495 -0.212637,0.120268 -0.26015,0.393436 -0.103419,0.56401 -0.0039,0.07381 0.03612,0.151187 0.103419,0.212425 -0.05521,-0.01985 -0.120959,-0.02954 -0.198543,-0.01834 -0.403906,0.05706 -0.538617,0.805498 0.04962,0.538376 0.108037,0.0013 0.188393,-0.02535 0.244039,-0.06959 0.0053,0.04237 0.01825,0.08232 0.03723,0.117197 -0.28417,0.120419 -0.251681,0.452201 -0.02893,0.640927 -0.197681,-0.03276 -0.397489,-0.04011 -0.574943,-0.02561 -0.05957,0.0048 -0.120133,0.01531 -0.181994,0.02932 -0.09119,-0.08725 -0.232093,-0.136476 -0.405353,-0.106206 -0.21307,0.04388 -0.452659,0.09191 -0.62044,0.175799 -0.03561,-0.0041 -0.07183,-0.0035 -0.103409,0.0035 -0.340559,0.07089 -0.24739,0.435569 -0.02893,0.505417 -0.315029,0.266444 -1.158676,-0.04972 -1.356693,0.358922 -0.0069,0.0013 -0.0133,0.002 -0.0207,0.0035 -0.4861,-0.02348 -0.480329,0.549816 -0.07445,0.560358 -0.0094,0.119479 0.01699,0.230574 0.177859,0.314969 0.149564,0.112723 0.584828,0.229765 0.194402,0.322296 -0.515938,0.212157 -0.485341,0.37789 -0.68248,0.655577 -0.312591,0.3033 0.507088,0.425781 0.0039,0.6043 1.377441,0.144609 2.981144,0.0013 4.036983,-0.900963 0.440898,-0.340379 0.376822,-0.869076 0.08271,-1.252556 0.04404,-0.0082 0.08667,-0.014 0.128227,-0.02562 0.0061,0.0077 0.01007,0.01429 0.01651,0.02198 0.251181,0.263937 0.650983,0.571201 1.02993,0.640925 -0.06282,0.120671 -0.04979,0.261672 0.09514,0.410194 0.02334,0.209814 -0.583901,0.324226 -0.554259,0.662905 -0.0753,0.432889 0.660446,0.552816 0.85207,0.604309 -0.604021,0.137712 -1.431133,0.601368 -1.087835,1.245228 0.105339,0.343799 0.640902,-0.215089 0.98029,-0.216086 0.0574,-0.01559 0.115847,-0.02636 0.173726,-0.0403 -0.248911,0.188367 -0.367194,0.458842 -0.115831,0.747138 0.09502,0.07951 0.210417,0.172998 0.330896,0.26003 -0.394547,0.04712 -0.732054,0.190154 -0.885156,0.567684 -0.3032,0.490598 0.228714,0.475344 0.632851,0.534715 0.235291,0.03138 0.467928,0.08752 0.690757,0.161146 -0.173578,0.339135 0.438409,0.60218 0.769337,0.35526 0.0325,0.01965 0.06338,0.04168 0.09515,0.06229 -0.06492,0.186623 0.182279,0.440567 0.471535,0.362581 0.08754,0.08117 0.171079,0.167078 0.248173,0.256377 -0.07245,0.09429 -0.04205,0.226009 0.04551,0.31863 -0.02591,0.176073 0.163798,0.389261 0.417756,0.410192 0.0046,0.01085 0.0078,0.02198 0.01252,0.03297 -0.23121,0.541252 -0.490167,1.261504 -0.351583,1.864186 -0.14845,-0.04637 -0.295996,-0.09905 -0.438442,-0.161152 -1.421025,0.05185 -2.776726,-0.326233 -4.198298,-0.292994 -0.918367,0.0013 -1.853643,0.267027 -2.490025,0.87166 0.128114,0.392592 0.41554,0.705521 0.777616,0.915611 -0.33424,0.402255 -0.427411,1.032633 -0.550119,1.483296 -0.143235,0.523823 -0.70045,1.150918 -0.11582,1.640775 0.539394,0.349586 0.323096,0.960785 -0.01651,1.355107 0.610948,0.153961 1.341166,0.06072 1.799269,-0.303987 0.177896,0.324282 0.464392,0.599027 0.835527,0.772782 -0.12616,0.170464 -0.149426,0.376885 0.03723,0.593314 0.09988,0.09221 0.22139,0.202156 0.351573,0.30032 -0.800307,0.569945 -1.41957,1.380565 -2.241843,1.937428 -0.437874,0.334963 -1.044542,0.524739 -0.972022,1.139016 -0.243878,1.118348 -0.75804,2.388989 -1.774451,3.124073 l 0,1.069432 c 0.614415,0.01341 1.224913,0.04487 1.828221,0.131848 0.380047,-6.26e-4 0.611175,-0.161077 0.785892,-0.384555 0.09484,0.228492 0.222079,0.442221 0.372258,0.644581 l 38.359618,0 c -0.167899,-0.305277 -0.318719,-0.594455 -0.413659,-0.849832 0.311693,0.09851 0.569686,0.03347 0.769338,-0.117185 0.187469,0.393267 0.703243,0.62587 1.021661,0.966886 l 6.394645,0 0,-29.035865 -13.5048718,0 -0.074456,0.09889 -0.00388,0.0035 c -0.016131,0.01779 -0.030171,0.03681 -0.045527,0.05495 -0.480633,-0.29046 -1.1104429,-0.339211 -1.6793148,-0.322296 -0.69869,0.03001 -1.5554609,0.190454 -2.0639918,0.640926 -0.059643,-0.0993 -0.1920671,-0.166682 -0.3308976,-0.124517 -0.1221932,0.02376 -0.1984964,0.06695 -0.244039,0.117197 -0.1568967,-0.129767 -0.3468075,-0.164215 -0.5832771,-0.124517 -0.36536483,-0.0095 -0.44352879,0.303933 -0.28954312,0.49809 -0.25298181,0.189988 -0.16071003,0.615552 -0.26058279,0.908285 -0.26961042,0.08016 -0.50225644,0.231852 -0.66179527,0.505417 -0.12662272,0.218584 -0.31172494,0.520045 -0.19854323,0.662902 -0.0316437,0.0068 -0.0635223,0.0149 -0.0951337,0.02197 0.11885905,0.240327 0.27697081,0.474568 0.45912583,0.692206 -0.50894977,0.09129 -1.00549082,0.262543 -1.32773982,0.607963 -0.6765004,-0.06531 -1.375866,-0.213002 -2.0639915,-0.142837 -0.9831454,-0.002 -2.0671561,0.307223 -2.7133785,0.963224 -0.010754,-0.0134 -0.021953,-0.0272 -0.033122,-0.04032 0.1105895,-0.227134 -0.1376819,-0.493235 -0.4384399,-0.432169 0.0099,-0.238817 -0.2136212,-0.526529 -0.55426,-0.49077 -0.1910205,0.04415 -0.311408,0.184564 -0.3557175,0.333285 -0.2525464,-0.01285 -0.5193513,-0.0041 -0.7900228,0.0035 0.021798,-0.0362 0.035129,-0.08079 0.037231,-0.131848 0.06103,0.04745 0.1473465,0.07441 0.2688518,0.06592 0.3010834,-0.06207 0.5162404,-0.436544 0.3226297,-0.589654 0.084914,-0.01435 0.1634162,-0.07124 0.2150861,-0.194109 0.028777,-0.0469 0.038161,-0.09506 0.033122,-0.142835 0.2011184,0.205213 0.4054172,0.404328 0.6121662,0.607961 0.6340281,-0.395166 1.5033947,-0.635328 2.1632673,-1.047459 -0.017368,0.03653 -0.03823,0.07247 -0.057934,0.106206 0.657638,0.06469 1.5613563,-0.602516 1.0630242,-1.168319 -0.033121,-0.01484 -0.067716,-0.02671 -0.1034149,-0.03661 0.084644,-0.25626 -0.071735,-0.594496 -0.016519,-0.776436 0.3387844,-0.03673 0.8444926,-0.129273 1.1664247,-0.340612 0.017451,0.01862 0.017762,0.01228 0.012457,-0.0075 0.070816,-0.04781 0.1297692,-0.104555 0.177865,-0.164811 0.1709097,0.112824 0.1830089,0.09071 0.020707,-0.01834 0.024742,-0.034 0.042111,-0.07176 0.057934,-0.109883 0.015047,0.002 0.029243,0.0028 0.045522,0.0035 0.4447302,-0.01894 0.6155393,-0.663494 0.033121,-0.527394 -0.084844,-0.01313 -0.1518532,-0.0013 -0.2068113,0.02197 -0.2586426,-0.2032 -0.6933768,-0.216777 -1.0175198,-0.208763 -1.6820053,0.172736 -3.3925766,0.04533 -5.0875895,0.08424 -0.016058,0.01772 -0.030566,0.03701 -0.045523,0.05495 -0.029627,-0.01272 -0.060492,-0.02761 -0.095134,-0.03661 -0.1372854,-0.03346 -0.2784127,-0.05116 -0.4218974,-0.03661 -0.3036114,-5.97e-4 -0.59867,0.118741 -0.8437942,0.09523 -1.0568965,-0.151029 -2.1564205,0.03661 -3.2345505,-0.0074 -0.05435,-0.01052 -0.110182,-0.02046 -0.165448,-0.01107 -0.0069,-4.31e-4 -0.01388,4.6e-4 -0.0207,0 -0.163829,0.02479 -0.418259,0.0068 -0.661804,-0.0074 -0.05133,-0.108498 -0.151409,-0.199281 -0.264726,-0.205097 z m 16.0983052,1.538222 c 0.1075285,0.04326 0.231785,0.05391 0.347441,0.01107 0.3168439,0.08887 0.6344712,0.213632 0.9513384,0.340612 C 2.8933067,63.347519 2.6961132,63.490623 2.382038,63.422004 2.0552045,63.375314 1.6746924,63.301348 1.2983377,63.275507 1.5578812,63.189897 1.767484,63.05947 1.7822822,62.836009 z m -3.6647229,0.01834 c -0.1255514,0.03867 -0.2302499,0.132185 -0.2854019,0.230733 -0.053987,-0.0048 -0.1123738,-0.0048 -0.1654488,0 -0.6599889,0.0767 -0.6629203,0.818217 -0.2605832,1.157333 0.289675,-0.140021 0.8092661,-0.488277 0.8024338,-0.8094 0.445033,0.07396 0.6112491,-0.596858 -0.091,-0.578666 z M -24.99169,64.17641 c 0.02108,0.009 0.04373,0.01992 0.06617,0.02562 -0.0093,0.01167 -0.01699,0.02418 -0.02481,0.03661 -0.01084,-0.0228 -0.02388,-0.04265 -0.04134,-0.06229 z m 19.2542647,1.014497 c -0.040327,-2.2e-5 -0.083881,0.0013 -0.1240927,0.0075 -0.7439994,0.236131 0.3823508,0.960374 0.6328504,0.424841 0.03622,-0.283254 -0.2263164,-0.431997 -0.5087557,-0.432169 z m -18.7579097,0.0075 c 4.18e-4,-5.98e-4 0.0039,5.91e-4 0.0039,0 0.02675,0.06064 0.0845,0.115356 0.194402,0.161145 0.03831,-0.01041 0.08718,-0.03221 0.136491,-0.05858 0.06764,0.09867 0.183723,0.177659 0.326764,0.197776 -0.01014,0.04731 -0.0133,0.0949 -0.01252,0.142829 -0.0895,0.02053 -0.178123,0.05324 -0.260585,0.09157 -0.142776,-0.156723 -0.346277,-0.269376 -0.570801,-0.344273 0.07025,-0.05227 0.132175,-0.120118 0.181999,-0.190442 z m 2.245982,1.215933 c 0.06801,0.269245 0.158849,0.505629 -0.33504,0.432169 -0.0015,-1.59e-4 -0.003,1.44e-4 -0.0039,0 0.150764,-0.130454 0.278101,-0.279005 0.33917,-0.432169 z m 37.664729,6.15286 c 0.0023,0.002 0.0023,0.0048 0.0039,0.0075 -0.406881,0.108399 -0.819681,0.632025 -0.355715,0.900954 -0.41975,0.180498 -1.399506,0.519429 -0.926521,1.062117 0.522803,0.364435 1.201614,0.474163 1.728953,0.849683 0.242356,0.11647 0.494563,0.215981 0.748662,0.303981 -0.04446,0.01668 -0.08855,0.03648 -0.132364,0.05858 0.371516,0.356668 1.043712,0.180654 1.129198,0.736157 0.19057,0.36101 0.465021,0.63932 0.790023,0.853345 -0.874803,0.106991 -1.779164,0.445203 -2.626521,0.457805 -1.029276,0.05137 -1.76421,-0.765392 -2.783699,-0.8094 -0.343377,-0.05171 -0.692477,-0.07949 -1.042331,-0.06592 -1.670837,0.0353 -3.2454165,0.58962 -4.8931879,0.791085 0.3356985,0.291612 0.2583258,0.453375 -0.1819999,0.413859 -0.077815,0.0035 -0.1609041,0.0073 -0.2440394,0.01107 0.085183,-0.03002 0.1661235,-0.06878 0.2440394,-0.113538 0.5376467,-0.46446 -0.2668185,-0.981367 -0.7610709,-1.062107 -0.034125,-0.0083 -0.06895,-0.01462 -0.103402,-0.02197 0.4299329,-0.426654 0.6744452,-0.991744 0.6204332,-1.574852 0.078344,-0.04059 0.1527292,-0.08671 0.2274959,-0.139169 0.285425,-0.217713 0.264988,-0.603122 0.7114331,-0.600643 0.2740701,-0.142197 0.2628008,-0.326884 0.1323625,-0.487109 0.0031,-0.002 0.00544,-0.0048 0.00829,-0.0075 0.567305,-0.287314 1.1114356,-0.971621 1.6999998,-1.025484 0.1231635,0.426799 0.8255922,0.501867 1.1250642,0.512739 -0.425211,0.199642 -0.394234,0.80863 0.148905,0.809399 0.19185,0.104556 0.237973,0.518261 0.60389,0.53106 0.887003,0.105464 1.876531,-0.201176 2.514841,-0.739817 0.221874,-0.540228 -0.605223,-0.349031 -0.84792,-0.644757 -0.324297,-0.239236 0.464191,-0.357542 0.628708,-0.454146 0.605209,-0.172483 1.239463,-0.331272 1.832362,-0.553029 z m -22.5053603,1.534516 c 0.051423,0.344766 0.1508143,0.605646 0.6328505,0.325956 0.022493,-0.002 0.044757,-0.0035 0.066159,-0.0035 0.034437,0.181335 0.096775,0.369449 0.2233623,0.476121 -0.019307,0.01991 -0.032344,0.03179 -0.053743,0.05495 0.030404,-0.009 0.059648,-0.02061 0.086851,-0.03297 0.063597,0.04354 0.1393097,0.06933 0.2357719,0.06592 l 0,0.157484 c 0.060963,0.195228 0.2198335,0.311309 0.4136224,0.391884 -0.00467,0.0073 -0.00778,0.01075 -0.012457,0.01834 0.00694,-0.0041 0.014014,-0.0068 0.020709,-0.01107 0.1248431,0.05074 0.2638629,0.08544 0.4053536,0.117198 -0.015669,0.02974 -0.027686,0.0526 -0.045521,0.08789 0.024119,-0.02829 0.045606,-0.05336 0.066159,-0.08056 0.00807,0.002 0.016744,0.002 0.024813,0.0035 0.090899,0.07002 0.1922218,0.123175 0.3143532,0.153825 0.057709,0.02465 0.1382905,0.06256 0.210953,0.09522 0.00694,0.03262 0.0214,0.06345 0.041332,0.09156 -0.00777,0.01178 -0.012457,0.01669 -0.020707,0.02933 0.00694,-0.0061 0.017297,-0.01476 0.024813,-0.02197 0.016053,0.02109 0.033745,0.04223 0.057934,0.05858 0.00792,0.03792 0.021558,0.07393 0.045521,0.106206 0.00539,0.110236 0.1090473,0.220618 0.3019528,0.252709 0.1841017,0.02293 0.4258679,0.05075 0.5997557,0.01463 0.080242,0.0537 0.1875214,0.09838 0.3019442,0.135508 -0.00466,0.02094 -0.00694,0.03186 -0.012456,0.05494 0.00777,-0.01429 0.017524,-0.0331 0.024813,-0.0513 0.1779982,0.05686 0.3658466,0.100959 0.5087557,0.146495 0.1507365,0.145756 0.3313095,0.303192 0.5211735,0.399212 0.083597,0.05626 0.1733131,0.09685 0.2647163,0.120858 -0.071821,0.307114 -0.084219,0.637239 -0.1033988,0.900964 -0.00694,0.295808 0.1598788,0.664666 0.4218974,0.893634 -0.013023,0.280777 0.2901253,0.594771 0.55011832,0.516405 0.0148916,0.02534 0.0257474,0.05219 0.0372275,0.08056 0.0715077,0.04361 0.13325132,0.101061 0.19026747,0.161152 -0.0615017,0.09361 -0.0504893,0.211396 0.003826,0.31131 -0.35184639,0.187193 -0.223262,0.504765 0.0331224,0.611622 -0.0807948,0.21761 0.20869563,0.53032 0.55011805,0.49077 0.07592942,-0.06737 0.12812738,-0.152451 0.15303929,-0.24172 0.14055232,0.440024 0.6409242,0.831635 1.05061407,1.058446 0.083298,0.05185 0.1668525,0.07978 0.2440393,0.09157 -0.08074,0.305094 0.4952369,0.581187 0.6700705,0.175793 0.061893,-0.110026 -0.032264,-0.293295 -0.1613151,-0.410194 0.099347,-0.143522 0.1413366,-0.328984 0.095136,-0.494429 0.1121345,-0.05872 0.1452214,-0.1694 0.1819921,-0.267358 0.1393193,0.02775 0.281322,-0.0096 0.3309053,-0.161144 0.054756,0.0073 0.1068995,0.01416 0.1530395,0.01834 -0.022415,0.262941 0.2429534,0.562444 0.5087558,0.205097 0.050103,-0.03056 0.086952,-0.06455 0.1116857,-0.102551 0.028696,0.01352 0.058945,0.02527 0.090994,0.03297 0.041882,0.06462 0.1036342,0.103658 0.1695905,0.12453 -0.037694,0.02609 -0.061658,0.05927 -0.07859,0.09522 -0.068251,-0.03145 -0.1510926,-0.04685 -0.2316298,-0.03297 -0.1894223,0.03687 -0.2530285,0.131945 -0.2481732,0.230734 -0.407495,0.08948 -0.427474,0.718398 0.1199532,0.545701 0.1966742,-0.01462 0.2866579,-0.120694 0.2936694,-0.238052 0.050412,-0.01021 0.1018356,-0.03193 0.1447715,-0.07691 -0.00155,0.01642 -0.0062,0.03098 -0.00388,0.04758 -0.037538,0.05969 -0.087743,0.144539 -0.1571732,0.282011 0.07244,-0.08488 0.1307176,-0.164749 0.1695827,-0.230739 0.055066,0.160102 0.265562,0.301488 0.5128975,0.227072 0.016985,-0.02061 0.032419,-0.03991 0.045527,-0.06229 0.044209,-0.0083 0.094701,-0.02389 0.1571811,-0.05131 0.5350174,0.05047 0.9346244,-0.576378 0.1364956,-0.582334 -0.013731,5.43e-4 -0.027689,0.0048 -0.041339,0.0075 -0.0097,-0.0272 -0.02381,-0.05645 -0.041339,-0.08058 0.026447,-0.0055 0.051345,-0.01272 0.082726,-0.02197 0.217204,0.05302 0.4266598,-0.04875 0.5253071,-0.183129 0.033583,0.02205 0.072983,0.03728 0.1199529,0.04758 -0.014968,0.0069 -0.032652,0.01203 -0.045527,0.02197 -0.2319246,0.164381 -0.1158186,0.338389 0.066159,0.435831 0.011551,0.02636 0.023036,0.05308 0.041339,0.07691 -0.1373648,0.282533 -0.089239,0.630742 0.2978108,0.351593 0.1553353,-0.01277 0.2843935,-0.08797 0.3639923,-0.183121 0.06895,0.01253 0.1602057,0.02245 0.2895352,0.03297 0.016909,0.0069 0.036607,0.01484 0.053747,0.02197 -0.3541344,0.110082 -0.5545856,0.574855 -0.074456,0.703194 0.2190576,0.171961 0.6798744,-0.181617 0.7155669,-0.454147 0.7208567,0.250814 1.5333101,0.398411 2.1384485,-0.09157 1.3411804,0.543957 2.9076934,0.387619 4.2520624,-0.05858 -0.06576,0.235005 0.08611,0.476265 0.293677,0.564011 -0.01675,0.102132 -0.02102,0.204004 -0.01243,0.307649 -0.02421,0.201271 -0.02474,0.421531 -0.02893,0.640925 -0.609745,-0.03819 -1.443465,0.458212 -0.980291,1.036473 0.01806,0.0193 0.03847,0.04199 0.05794,0.06229 -0.05964,0.208276 -0.07836,0.423558 -0.04964,0.626283 0.003,6.77e-4 0.0054,0.0026 0.0084,0.0038 -0.316247,0.293113 -0.553515,0.669623 -0.670072,1.0621 -0.07415,0.126685 -0.100981,0.275704 -0.07445,0.399207 -0.0023,0.02694 -0.0078,0.05376 -0.0084,0.08059 0.0039,0.0038 0.0046,0.0101 0.0084,0.01466 C 11.061872,86.51618 10.400728,86.344488 9.7734312,86.374629 8.5485344,86.282261 7.3526137,86.742555 6.1500695,86.663958 5.2769337,86.453915 4.4093979,86.130984 3.4821879,86.132903 2.3581178,85.268163 0.63805398,84.721954 -0.68715725,85.480989 c -0.61278625,0.377098 -0.82417385,1.088143 -0.86861505,1.692054 -2.6556506,-0.06241 -4.4419344,-2.479527 -7.147447,-2.413552 -0.04646,-0.09136 -0.1188203,-0.171217 -0.2026773,-0.241729 0.073911,-0.212165 -0.043196,-0.431994 -0.4384417,-0.399195 -0.018146,6.46e-4 -0.032965,0.0055 -0.049636,0.0075 0.4552324,-0.74843 2.789e-4,-1.641792 0.4012112,-2.398901 -0.3763304,-0.32935 -0.8285782,-0.711303 -1.4021889,-0.666564 -0.442482,0.09 -0.743992,0.331267 -0.976156,0.637268 -0.0884,-0.109517 -0.20958,-0.204507 -0.368127,-0.271024 -0.241114,-0.114027 -0.520646,-0.179792 -0.790022,-0.190451 -2.802733,0.385122 -6.042436,0.0818 -8.346961,1.816576 -0.09311,0.08912 -0.146353,0.189439 -0.173724,0.29666 -0.390626,-0.30168 -0.866077,-0.523404 -1.385646,-0.61529 -0.213495,-0.04965 -0.429674,-0.08303 -0.649393,-0.106217 0.05926,-0.08716 0.100089,-0.179426 0.124086,-0.271023 1.177049,-0.12902 2.326435,-0.701045 3.255235,-1.30383 0.449346,-0.262653 0.742256,-0.583651 0.595624,-1.069434 0.07546,-1.49191 1.831027,-2.21778 3.151825,-2.798107 -0.01153,-0.189467 -0.277731,-0.399899 -0.579079,-0.560358 0.329718,-0.129246 0.642646,-0.299043 0.926519,-0.468794 0.623123,-0.357767 1.406061,-0.261972 2.018497,0.03661 0.166567,0.01429 0.35087,0.0048 0.525298,-0.03297 0.273172,0.156104 0.57082,0.208235 0.827252,-0.0403 0.311898,-0.134739 0.645176,-0.464376 0.703166,-0.776434 0.615741,-0.120896 1.370017,-0.120646 1.5676369,0.505417 0.029775,0.06057 0.065532,0.118903 0.099284,0.175794 -0.5144169,0.05631 -0.5300229,0.806427 0.078587,0.637265 0.1481831,0.01203 0.2530056,-0.04402 0.3143542,-0.128187 0.177595,0.182894 0.3747032,0.344952 0.5914874,0.49077 -0.034128,0.128977 -0.009,0.269444 0.1075523,0.41752 0.3334182,0.346506 0.7674774,0.708423 1.1088297,0.653327 0.027531,-0.01116 0.054991,-0.0226 0.082718,-0.0366 0.8177208,0.372649 1.627335,0.750539 2.1715352,1.380745 0.252563,0.344725 0.216452,0.740216 0.095134,1.117047 -0.3269344,-0.17021 -0.7446675,-0.176905 -1.1167875,-0.17214 -0.5881842,0.04044 -1.6975261,0.0884 -1.6669127,0.809406 0.2378737,0.404507 0.9052287,0.447142 1.2863778,0.765448 0.098233,0.073 0.2154966,0.128319 0.3391653,0.164811 -0.7389277,0.08426 -1.1309887,0.947416 -0.3226229,1.322146 0.3217694,0.245161 0.6803166,0.441894 1.0051106,0.106206 0.5655211,-0.214162 1.1178644,-1.07982 0.3019444,-1.344121 -0.1129676,-0.04004 -0.2310481,-0.064 -0.3515816,-0.07691 0.2222992,-0.06791 0.3979776,-0.220122 0.446716,-0.476115 0.012169,-0.214306 0.2288767,-0.428646 0.3060786,-0.637265 0.6164539,-0.112662 1.2530735,-0.412468 1.1747009,-1.0438 -0.00227,-0.345103 -0.3140917,-0.93462 0.2398976,-1.05478 0.3312076,0.121672 1.1254119,0.47426 1.091976,-0.09889 -0.6090861,-0.61229 -1.5596421,-0.928894 -2.2046216,-1.505267 -0.8404995,-0.315559 -1.4483063,-0.99896 -2.0725777,-1.631198 0.2706572,-0.300136 0.3839789,-0.687688 -0.062055,-0.919279 -0.1947657,-0.09555 -0.4115744,-0.13257 -0.6328418,-0.139169 -0.00467,-0.01359 -0.011744,-0.02659 -0.016518,-0.0403 -0.060723,-0.229086 -0.074225,-0.55665 0.2978099,-0.465133 0.065693,0.002 0.1273912,-0.0055 0.1861342,-0.01834 z m -3.7722587,1.95941 c -0.615904,0.161879 -0.916405,0.737442 -0.616306,1.252556 0.03429,0.162848 0.140299,0.2617 0.268856,0.303989 -0.475319,0.197288 -0.622859,0.761203 -0.525307,1.150004 -0.331146,0.437739 -0.154822,1.213015 0.56667,1.157331 0.969829,0.08281 1.3939598,-0.937813 1.034064,-1.615136 -0.113523,-0.288606 -0.334202,-0.626381 -0.678349,-0.717842 0.125849,-0.05789 0.228391,-0.165082 0.264726,-0.307642 0.195038,-0.351456 0.435617,-1.270989 -0.314354,-1.22326 z m 14.5141078,2.256071 c -0.021251,0.08466 0.017064,0.173369 0.086866,0.245381 -0.00544,4.74e-4 -0.010789,-5.97e-4 -0.01652,0 -0.643507,-0.1047 -0.5170623,0.848166 0.062047,0.659242 0.1366513,-0.03049 0.239859,-0.104666 0.3019449,-0.194108 0.053903,-4.48e-4 0.1166183,-0.01538 0.1902678,-0.04395 0.0031,-2.39e-4 0.00544,2.83e-4 0.0083,0 -0.035753,0.06814 -0.068405,0.139679 -0.091,0.219747 -0.069726,0.137953 -0.08904,0.22523 -0.078591,0.278344 -0.080413,0.159793 -0.043896,0.358434 0.1447716,0.446824 -0.3767658,0.152637 -0.2758772,0.641978 0.033118,0.867999 -0.07469,0.05041 -0.145206,0.120069 -0.2026693,0.190442 -0.048011,-0.05398 -0.1197125,-0.100458 -0.1985433,-0.120857 -0.019235,-0.02754 -0.045294,-0.05645 -0.078592,-0.08424 -0.032575,-0.01676 -0.073138,-0.02954 -0.1158114,-0.04395 -0.049404,-0.166118 -0.1862268,-0.310788 -0.4094883,-0.282013 -0.020629,0.0013 -0.042268,-0.0041 -0.062046,0.0035 -0.039633,0.0035 -0.071975,0.0093 -0.1034084,0.01834 0.046225,-0.09601 0.029472,-0.20875 -0.086857,-0.303982 0.1456402,0.03476 0.2942741,-0.01129 0.3557166,-0.208757 0.1102805,-0.240279 -0.2488172,-0.446569 -0.4963466,-0.380896 -0.2468702,0.09919 -0.2407664,0.274808 -0.1364956,0.410194 -0.067786,-0.04505 -0.1353405,-0.09381 -0.2068187,-0.139176 0.09636,-0.238774 0.00233,-0.538203 -0.347441,-0.483443 -0.1804255,0.03942 -0.2494838,0.134623 -0.2481732,0.234401 -0.021717,-0.0028 -0.044285,-0.0028 -0.066158,-0.0035 -0.064221,-0.181321 -0.081235,-0.376507 -0.062047,-0.567677 -0.1402493,-0.356436 0.4918792,0.181898 0.736252,-0.08424 0.3280203,-0.06951 -0.064685,-0.503235 0.3143543,-0.538376 0.13417,0.165273 0.3840567,0.249282 0.5708031,0.0075 0.031334,-0.02679 0.053283,-0.05227 0.070346,-0.08058 0.044131,-0.0072 0.088363,-0.01407 0.132354,-0.02197 z m -19.1632578,0.223345 c -0.212813,0.03346 -0.467098,0.123679 -0.508763,0.24905 -0.09048,-0.0627 -0.208285,-0.09578 -0.330898,-0.0769 -0.49291,-0.0048 -1.053871,0.698524 -0.41363,0.900956 0.459088,0.09047 1.032242,-0.02851 0.922385,-0.527386 -0.0015,-0.02158 -0.0069,-0.04148 -0.01251,-0.06229 0.01141,0.0068 0.02055,0.01166 0.03311,0.01834 0.586563,0.630771 1.248831,-0.400441 0.310221,-0.501757 z m -2.357668,0.908293 c -0.02289,0.002 -0.04778,0.0061 -0.07036,0.01107 -0.355779,0.05969 -0.348325,0.327276 -0.202676,0.505416 -0.0726,0.304785 0.600199,0.513014 0.653527,0.07324 0.0039,-0.03015 -0.0015,-0.05666 -0.01252,-0.08423 0.256651,-0.224571 -0.0015,-0.490287 -0.301944,-0.505416 -0.0224,-0.0013 -0.04328,-0.002 -0.06617,0 z m 22.749398,0.54204 c -0.0356,0.05459 -0.071975,0.10676 -0.1075442,0.161146 -0.00465,-0.04669 -0.020243,-0.08767 -0.045527,-0.124518 0.058559,-0.0028 0.1105297,-0.01416 0.1530472,-0.03661 z m -4.9676447,0.399207 c 0.03908855,0.01263 0.07932623,0.02225 0.12408653,0.02932 -0.04459711,0.08525 -0.0691058,0.171962 -0.0785828,0.256377 -0.02233712,-0.03331 -0.04971478,-0.06207 -0.08686578,-0.08423 0.05281776,-0.06208 0.06212419,-0.131518 0.04133856,-0.201436 z m 4.7815108,0.117198 c 0.02164,0.04367 0.058869,0.08773 0.1158186,0.131849 0.00775,0.0028 0.013731,0.0078 0.020709,0.01107 -0.046537,0.03118 -0.08125,0.07218 -0.1034094,0.117198 -0.045062,-0.01923 -0.1018357,-0.03179 -0.169583,-0.0403 0.048553,-0.0671 0.098912,-0.140632 0.1364957,-0.219745 z m -1.7620469,0.13917 c -0.00544,0.01765 -0.01078,0.03612 -0.012418,0.05495 -0.0062,1.44e-4 -0.014111,0.0035 -0.020709,0.0035 -0.011257,-0.01313 -0.024587,-0.02665 -0.037228,-0.0403 0.023965,-0.0048 0.04832,-0.0099 0.070346,-0.01834 z m -11.47779,1.034224 c -0.032503,-0.002 -0.064683,-4.4e-4 -0.099261,0.0035 -0.6413191,0.108487 0.1035751,0.914767 0.3557154,0.388225 0.1344689,-0.213249 -0.028776,-0.376597 -0.2564483,-0.391886 z m 14.7206163,-0.08931 c 0.00465,1.31e-4 0.0138,0.01021 0.028928,0.0366 -0.00829,0.0068 -0.014892,0.0061 -0.020707,0 7.755e-4,0.0013 -7.756e-4,0.002 0,0.0035 -0.013731,0.0061 -0.019701,-0.02025 -0.01242,-0.01834 -0.0031,-0.0075 -0.00155,-0.01484 0,-0.01834 6.203e-4,-0.0013 0.00234,-0.0035 0.00388,-0.0035 z m -0.7982991,0.79475 c -0.049174,0.0013 -0.094599,0.01456 -0.1158113,0.07324 -0.3162621,0.37449 -0.015047,0.906786 -0.057936,1.333131 0.156987,-0.377201 0.9279391,-1.069284 0.3226297,-1.402718 -0.046691,0.0061 -0.099701,-0.0048 -0.1489055,-0.0035 z m 5.8321176,0.201431 c -0.0746,-0.002 -0.149518,3.63e-4 -0.223355,0.0035 -0.03778,-0.0028 -0.07679,-0.0013 -0.115819,0 -0.402872,0.01615 -0.852822,0.255544 -0.9513382,0.575004 -0.061735,0.06393 -0.1081641,0.135118 -0.1323538,0.212418 0.067941,0.259193 0.259923,0.419101 0.496347,0.494431 0.305334,0.271162 0.691229,0.488936 1.042339,0.157484 0.487108,-0.214948 1.1955,-0.900816 0.525298,-1.296539 -0.194385,-0.104877 -0.41719,-0.140961 -0.641117,-0.146503 z m -8.6985424,0.06592 c -0.532706,0.01257 -0.406099,0.602043 0.01242,0.703188 0.4977814,0.414231 1.2996483,0.216613 1.9192205,0.212425 C 4.9603097,83.479071 4.6782509,82.921435 4.25163,82.913503 3.6855503,82.76715 3.1005927,82.644984 2.5102586,82.653465 z"
     id="path2166"
     inkscape:connector-curvature="0"
     sodipodi:nodetypes="cccccccccccccccccccccccccccccccccccccccccccccccccccccccccccccccccccccccccccccccccccccccccccccccccccccccccccccccccccccccccccccccccccccccccccccccccccccccccccccccccccccccccccccccccccccccccccccccccccccccccccccccccccccccccccccccccccccccccccccccccccccccccccccccccccccccccccccccccccccccccccccccccccccccccccccccccccccccccccccccccccccccccccccccccccccccccccccccccccccccccccccccccccccccccccccccccccccccccccccccccccccccccccccccccccccccccccccccccccccccccccccccccccccccccccccccccccccccccccccccccccccccccccccccccccccccccccccccccccccccccccccccccccccccccccccccccccccccccccc" />
</svg>
