<?xml version="1.0" encoding="UTF-8" standalone="no"?>
<!-- Generator: Adobe Illustrator 14.0.0, SVG Export Plug-In . SVG Version: 6.00 Build 43363)  -->

<svg
   xmlns:dc="http://purl.org/dc/elements/1.1/"
   xmlns:cc="http://creativecommons.org/ns#"
   xmlns:rdf="http://www.w3.org/1999/02/22-rdf-syntax-ns#"
   xmlns:svg="http://www.w3.org/2000/svg"
   xmlns="http://www.w3.org/2000/svg"
   xmlns:sodipodi="http://sodipodi.sourceforge.net/DTD/sodipodi-0.dtd"
   xmlns:inkscape="http://www.inkscape.org/namespaces/inkscape"
   version="1.0"
   id="Layer_1"
   x="0px"
   y="0px"
   width="30"
   height="30"
   viewBox="0 0 29.999999 30"
   enable-background="new 0 0 63.491 100"
   xml:space="preserve"
   inkscape:version="0.48.1 "
   sodipodi:docname="oxcart.svg"><metadata
   id="metadata15"><rdf:RDF><cc:Work
       rdf:about=""><dc:format>image/svg+xml</dc:format><dc:type
         rdf:resource="http://purl.org/dc/dcmitype/StillImage" /><dc:title /></cc:Work></rdf:RDF></metadata><defs
   id="defs13"><inkscape:perspective
     id="perspective3146"
     inkscape:persp3d-origin="0.5 : 0.33333333 : 1"
     inkscape:vp_z="1 : 0.5 : 1"
     inkscape:vp_y="0 : 1000 : 0"
     inkscape:vp_x="0 : 0.5 : 1"
     sodipodi:type="inkscape:persp3d" /></defs><sodipodi:namedview
   pagecolor="#ffffff"
   bordercolor="#666666"
   borderopacity="1"
   objecttolerance="10"
   gridtolerance="10"
   guidetolerance="10"
   inkscape:pageopacity="0"
   inkscape:pageshadow="2"
   inkscape:window-width="708"
   inkscape:window-height="560"
   id="namedview11"
   showgrid="false"
   inkscape:zoom="5.2964205"
   inkscape:cx="-4.8065951"
   inkscape:cy="7.1646845"
   inkscape:window-x="25"
   inkscape:window-y="25"
   inkscape:window-maximized="0"
   inkscape:current-layer="Layer_1"
   showguides="true"
   inkscape:guide-bbox="true" />




<path
   style="fill:#133b71;fill-opacity:1;stroke:none"
   d="M 8.2857948,16.341186 C 5.2664331,15.53215 2.1617482,17.32464 1.352713,20.344 c -0.80903476,3.01936 0.9834573,6.124045 4.0028188,6.933079 3.019355,0.809036 6.1240412,-0.983455 6.9330762,-4.002814 0.809035,-3.01936 -0.983451,-6.124045 -4.0028132,-6.933079 z m 0.133083,1.070068 c 0.926455,0.337325 1.6879462,0.944256 2.2226182,1.7072 L 8.1741933,20.542952 C 8.0342033,20.391549 7.8687687,20.264734 7.680854,20.165595 l 0.7380238,-2.754341 z m -0.862548,-0.227762 c 0.00414,7.12e-4 0.00828,0.0026 0.012537,0.0034 L 6.828334,19.950636 c -0.2025727,-0.0019 -0.4009846,0.02976 -0.5885598,0.09083 L 4.8152778,17.574141 c 0.8317702,-0.393285 1.7823396,-0.54592 2.7410643,-0.390622 z m 3.5232932,2.693827 c 0.37747,0.833532 0.509953,1.781248 0.341944,2.734738 L 8.6672228,21.874032 c 0.0062,-0.192515 -0.01742,-0.381661 -0.06766,-0.562201 L 11.079622,19.877319 z M 4.0609856,18.02019 5.4923654,20.499411 C 5.3663195,20.626479 5.2593962,20.774965 5.1733767,20.937859 L 2.4190335,20.199836 C 2.7469139,19.299321 3.3279309,18.552317 4.0609856,18.02019 z m -1.8655121,3.026529 2.7637406,0.740542 c -0.00122,0.194172 0.026805,0.384898 0.08333,0.5664 L 2.5681318,23.779612 C 2.1812678,22.949073 2.0374445,22.00143 2.1954735,21.046719 z m 6.2325153,1.669999 2.7637482,0.740543 c -0.343864,0.914747 -0.952342,1.667588 -1.7130232,2.194188 L 8.0542165,23.184146 c 0.147895,-0.132688 0.2733933,-0.290727 0.3737723,-0.467428 z m -2.9385306,0.388087 c 0.1198818,0.12241 0.2565244,0.228152 0.4094069,0.314565 L 5.158321,26.183112 C 4.2703992,25.848639 3.5338021,25.266544 3.0102323,24.536183 l 2.4792259,-1.431378 z m 1.7944234,0.497606 1.4313802,2.479222 C 7.8879016,26.450414 6.9504683,26.580086 6.0066565,26.413782 L 6.74468,23.659441 c 0.1848356,0.0071 0.3652497,-0.01116 0.5392016,-0.05703 z"
   id="path2848"
   inkscape:connector-curvature="0" /><path
   style="fill:#133b71;fill-opacity:1;stroke:none"
   d="m 18.389325,16.463942 c -2.888186,1.195598 -4.260812,4.507394 -3.065211,7.395579 1.1956,2.888186 4.507396,4.26081 7.395581,3.065211 2.888186,-1.195599 4.260809,-4.507396 3.06521,-7.395581 -1.1956,-2.888185 -4.507396,-4.260809 -7.39558,-3.065209 z m 0.756834,0.768088 c 0.940419,-0.296168 1.914021,-0.278015 2.802596,0.002 l -1.090827,2.631894 c -0.203221,-0.03494 -0.411667,-0.03488 -0.621112,8.32e-4 l -1.090657,-2.63468 z m -0.823036,0.344209 c 0.0038,-0.002 0.0082,-0.0029 0.01199,-0.0049 l 1.094378,2.643673 c -0.161859,0.121816 -0.300058,0.267647 -0.411737,0.430258 l -2.631896,-1.090832 c 0.420649,-0.818274 1.08202,-1.517898 1.937262,-1.978139 z m 4.435118,-0.0068 c 0.806795,0.431673 1.488687,1.103042 1.935661,1.96187 l -2.634681,1.090657 C 21.946959,20.46545 21.813108,20.329735 21.663384,20.217047 l 1.094857,-2.647608 z m -6.699408,2.797879 2.644609,1.096097 c -0.02269,0.177539 -0.01716,0.360432 0.01372,0.542038 l -2.634679,1.090657 c -0.287878,-0.914091 -0.281471,-1.860426 -0.02365,-2.728792 z m 0.361662,3.536839 2.643672,-1.094381 c 0.11743,0.15464 0.255518,0.289096 0.410825,0.398717 l -1.095582,2.637372 c -0.81243,-0.423576 -1.503278,-1.087989 -1.958915,-1.941708 z m 5.961751,-2.467939 2.643673,-1.094381 c 0.28386,0.935108 0.259214,1.90279 -0.02389,2.783582 l -2.631893,-1.09077 c 0.0366,-0.195291 0.04,-0.39707 0.01211,-0.598372 z m -2.095495,2.096306 c 0.169624,0.02417 0.342405,0.02491 0.516302,4.14e-4 l 1.094379,2.643673 c -0.908109,0.274982 -1.846845,0.261385 -2.706779,5.2e-4 l 1.096098,-2.64461 z m 1.72669,-0.697228 2.644608,1.096097 c -0.432062,0.796147 -1.09698,1.469554 -1.947092,1.911988 L 21.6203,23.208733 c 0.150953,-0.106896 0.283024,-0.23115 0.393141,-0.373405 z"
   id="path2848-9"
   inkscape:connector-curvature="0" /><path
   style="fill:#133b71;fill-opacity:1;stroke:none"
   d="m 2.4900387,15.598271 0,1.767997 c 0.8722715,-0.942089 2.0492903,-1.568347 3.329541,-1.767997 l -3.329541,0 z m 5.0974372,0 c 0.1981796,0.03098 0.3977323,0.07067 0.5958469,0.123273 1.227416,0.325887 2.2541032,1.024697 2.9890542,1.939931 l 4.760229,0 c 0.584445,-0.731653 1.360032,-1.330683 2.291718,-1.712849 0.40353,-0.165522 0.814591,-0.280487 1.227707,-0.350355 l -11.8645551,0 z"
   id="rect2959"
   sodipodi:nodetypes="cccccsccscc"
   inkscape:connector-curvature="0" /><path
   style="fill:#133b71;fill-opacity:1;stroke:none"
   d="m 22.060418,13.741957 0,2.118353 c 1.211084,0.269204 2.323323,0.928881 3.133735,1.904246 1.179964,-1.340867 1.80971,-2.681733 0.937525,-4.022599 l -4.07126,0 z"
   id="rect2987"
   sodipodi:nodetypes="ccccc"
   inkscape:connector-curvature="0" /><path
   style="fill:#133b71;fill-opacity:1;stroke:none"
   d="m 24.45604,6.884752 c -0.828455,0 -1.4955,0.6670447 -1.4955,1.4954985 l 0,3.6073635 c 0,0.828454 0.667045,1.495499 1.4955,1.495499 0.310669,0 0.598367,-0.09211 0.83696,-0.253034 l 2.056716,0.470384 -0.467141,2.763916 c -0.05513,0.32753 0.09681,0.635402 0.356844,0.778567 0.02323,0.222844 0.263396,0.447172 0.603389,0.53851 l 0.817497,0.220593 c 0.400042,0.107469 0.777859,-0.01303 0.846692,-0.269254 0.06884,-0.256224 -0.200103,-0.547826 -0.600146,-0.655294 l -0.697468,-0.188154 c 0.0265,-0.0597 0.04372,-0.123453 0.05515,-0.191398 l 0.470385,-2.789867 c 0.02734,-0.162424 0.004,-0.321884 -0.0584,-0.457409 0.02359,-0.04691 0.03966,-0.0992 0.05191,-0.15247 0.0871,-0.378906 -0.167252,-0.757136 -0.57095,-0.849936 l -2.205942,-0.509313 0,-1.930199 0,-1.4500827 0,-0.1784218 c 0,-0.8284538 -0.667043,-1.4954985 -1.495497,-1.4954985 z"
   id="rect3012"
   sodipodi:nodetypes="cccsccccccscccccscccccc"
   inkscape:connector-curvature="0" /><path
   sodipodi:type="arc"
   style="fill:#133b71;fill-opacity:1;stroke:none"
   id="path3071"
   sodipodi:cx="334.30316"
   sodipodi:cy="410.57959"
   sodipodi:rx="13.411865"
   sodipodi:ry="13.411865"
   d="m 347.71503,410.57959 a 13.411865,13.411865 0 1 1 -26.82373,0 13.411865,13.411865 0 1 1 26.82373,0 z"
   transform="matrix(0.10380902,0,0,0.10380902,-9.5247589,-37.233304)" /><path
   style="fill:#133b71;fill-opacity:1;stroke:none"
   d="m 5.8928552,11.444376 -3.6838237,1.203537 0,0.859667 c 0,0.371377 0.301353,0.671515 0.6742283,0.671515 l 17.9238952,0 2.009149,-2.063204 c 0,-0.371375 -0.301352,-0.671515 -0.674228,-0.671515 l -16.2492208,0 z"
   id="rect3086"
   sodipodi:nodetypes="cccccccc"
   inkscape:connector-curvature="0" /><rect
   style="fill:#133b71;fill-opacity:1;stroke:none"
   id="rect3093"
   width="19.491816"
   height="0.56722218"
   x="2.2979257"
   y="14.627424"
   ry="0.28361109" /><rect
   style="fill:#133b71;fill-opacity:1;stroke:none"
   id="rect3134"
   width="5.2253194"
   height="1.2679085"
   x="6.6870775"
   y="9.8071089"
   ry="0.28361109" /><rect
   style="fill:#133b71;fill-opacity:1;stroke:none"
   id="rect3136"
   width="4.1495185"
   height="3.3042462"
   x="12.142921"
   y="7.7707725"
   ry="0.28361109" /></svg>