<?xml version="1.0" encoding="UTF-8" standalone="no"?>
<!-- Generator: Adobe Illustrator 14.0.0, SVG Export Plug-In . SVG Version: 6.00 Build 43363)  -->

<svg
   xmlns:dc="http://purl.org/dc/elements/1.1/"
   xmlns:cc="http://creativecommons.org/ns#"
   xmlns:rdf="http://www.w3.org/1999/02/22-rdf-syntax-ns#"
   xmlns:svg="http://www.w3.org/2000/svg"
   xmlns="http://www.w3.org/2000/svg"
   xmlns:sodipodi="http://sodipodi.sourceforge.net/DTD/sodipodi-0.dtd"
   xmlns:inkscape="http://www.inkscape.org/namespaces/inkscape"
   version="1.0"
   id="Layer_1"
   x="0px"
   y="0px"
   width="30"
   height="30"
   viewBox="0 0 29.999999 30"
   enable-background="new 0 0 63.491 100"
   xml:space="preserve"
   inkscape:version="0.48.1 "
   sodipodi:docname="porter.svg"><metadata
   id="metadata15"><rdf:RDF><cc:Work
       rdf:about=""><dc:format>image/svg+xml</dc:format><dc:type
         rdf:resource="http://purl.org/dc/dcmitype/StillImage" /><dc:title /></cc:Work></rdf:RDF></metadata><defs
   id="defs13" /><sodipodi:namedview
   pagecolor="#ffffff"
   bordercolor="#666666"
   borderopacity="1"
   objecttolerance="10"
   gridtolerance="10"
   guidetolerance="10"
   inkscape:pageopacity="0"
   inkscape:pageshadow="2"
   inkscape:window-width="708"
   inkscape:window-height="480"
   id="namedview11"
   showgrid="false"
   inkscape:zoom="7.1670986"
   inkscape:cx="-0.30750902"
   inkscape:cy="13.979268"
   inkscape:window-x="250"
   inkscape:window-y="250"
   inkscape:window-maximized="0"
   inkscape:current-layer="Layer_1"
   showguides="true"
   inkscape:guide-bbox="true"><sodipodi:guide
     orientation="0,1"
     position="5.7205855,13.813121"
     id="guide3066" /></sodipodi:namedview>



<path
   d="M 4.7660878,9.6397907 C 5.7645599,9.5325 6.4836274,8.634301 6.3763367,7.6358281 6.269046,6.6373552 5.3761591,5.91795 4.3776869,6.0252406 3.3792139,6.1325314 2.6542656,7.0257809 2.7615563,8.0242538 2.8688471,9.0227266 3.7676148,9.7470814 4.7660878,9.6397907 z"
   id="path3"
   inkscape:connector-curvature="0"
   style="fill:#133b71;fill-opacity:1" /><path
   sodipodi:nodetypes="csscccssccccccsscccccc"
   d="m 0.4906224,28.153894 c -0.006903,0.08725 -0.003001,0.173346 0.006164,0.25864 0.0757434,0.704886 0.7025888,1.210087 1.4072444,1.134368 0.5765994,-0.06196 1.0213106,-0.498582 1.1198092,-1.03847 l 1.2125588,-9.273799 1.6231687,9.118209 c 0.1932347,0.540865 0.738743,0.892946 1.3312055,0.829283 0.7048859,-0.07574 1.2098577,-0.702565 1.134139,-1.40722 -0.010326,-0.0961 -0.030637,-0.185546 -0.056253,-0.274653 L 5.5538432,15.512131 5.6810708,14.434503 5.9566884,15.242098 c 0.2287501,0.52077 0.7258108,0.521544 0.7258108,0.521544 l 3.0221652,0.431301 c 0.060015,0.0045 0.1192101,0.0035 0.1780657,-0.0029 0.4804989,-0.05163 0.8288809,-0.477905 0.7772489,-0.958405 -0.04417,-0.411068 -0.364257,-0.727837 -0.7583895,-0.777113 L 7.2856327,14.089527 6.281043,11.324214 C 5.7795955,9.7741406 4.2673814,9.9743098 4.2673814,9.9743098 2.7896699,10.09519 2.5877468,11.683169 2.5877468,11.683169 z"
   id="path9"
   inkscape:connector-curvature="0"
   style="fill:#133b71;fill-opacity:1" />
<path
   d="M 9.8688953,13.447029 H 8.950305 c -0.636109,-6.04e-4 -1.2503644,-0.286514 -1.2509851,-0.784732 0,0 6.256e-4,-3.5572336 0,-3.5680512 6.256e-4,-0.4407783 0.6001003,-0.775666 1.2509851,-0.7759713 h 0.9185903 v 5.1287545 l 0,0 z"
   id="path3-1"
   inkscape:connector-curvature="0"
   style="fill:#133b71;fill-opacity:1" /><path
   d="M 15.649131,8.3269594 V 7.5896877 c 0.0035,-0.2655642 -0.380573,-0.4353698 -0.847938,-0.433313 0,0 -1.78714,-0.00209 -1.780684,0 -0.465503,-0.00209 -0.856008,0.1677488 -0.855139,0.433313 V 8.3269594 H 10.490601 V 13.455789 H 17.33793 V 8.3269594 h -1.688799 z m -0.628783,0 H 12.780121 V 7.5682049 h 2.240227 v 0.7587545 z"
   id="path5-7"
   inkscape:connector-curvature="0"
   style="fill:#133b71;fill-opacity:1" /><path
   d="m 17.952807,13.447029 h 0.91859 c 0.631142,-7.09e-4 1.245522,-0.28659 1.243784,-0.784809 0,0 0.0019,-3.5572331 0,-3.5680507 0.0019,-0.4407783 -0.597741,-0.775666 -1.243784,-0.7759713 h -0.91859 v 5.128831 l 0,0 z"
   id="path7"
   inkscape:connector-curvature="0"
   style="fill:#133b71;fill-opacity:1" /><path
   d="m 23.275841,9.4725769 c -1.00422,0 -1.815135,-0.8162329 -1.815135,-1.8204537 0,-1.0042208 0.810915,-1.8149042 1.815135,-1.8149042 1.004221,0 1.820455,0.8106834 1.820455,1.8149042 0,1.0042208 -0.816234,1.8204537 -1.820455,1.8204537 z"
   id="path3-4"
   inkscape:connector-curvature="0"
   style="fill:#133b71;fill-opacity:1" /><path
   sodipodi:nodetypes="csscccssccccccsscccccc"
   d="m 29.504879,27.423921 c 0.01618,0.08602 0.0215,0.172033 0.0215,0.257819 0,0.708943 -0.569283,1.278225 -1.277995,1.278225 -0.579919,0 -1.068733,-0.386613 -1.22435,-0.912886 l -2.196429,-9.091169 -0.847668,8.859445 c -0.134343,0.558414 -0.639112,0.966761 -1.234985,0.966761 -0.708945,0 -1.277995,-0.569282 -1.277995,-1.277994 0,-0.09665 0.01064,-0.187757 0.02659,-0.279091 l 1.626446,-11.829561 -0.241632,-1.057867 -0.187757,0.832419 c -0.171802,0.542229 -0.665935,0.596105 -0.665935,0.596105 l -2.923905,0.298258 c -0.05919,0.01087 -0.118158,0.01619 -0.177352,0.01619 -0.483264,0 -0.875195,-0.386612 -0.875195,-0.869878 0,-0.413435 0.284409,-0.762588 0.671021,-0.853691 l 2.526887,-0.190969 0.703394,-2.856815 c 0.332968,-1.5947762 1.857912,-1.5573173 1.857912,-1.5573173 1.482168,-0.03769 1.852595,1.5196263 1.852595,1.5196263 z"
   id="path9-0"
   inkscape:connector-curvature="0"
   style="fill:#133b71;fill-opacity:1" /><path
   d="M 9.7259212,7.9965782 H 8.8073309 C 8.1712219,7.9959741 7.5569665,7.7100645 7.5563458,7.2118461 c 0,0 6.256e-4,-3.5572334 0,-3.568051 6.256e-4,-0.4407783 0.6001003,-0.775666 1.2509851,-0.7759713 h 0.9185903 v 5.1287544 l 0,0 z"
   id="path3-1-0"
   inkscape:connector-curvature="0"
   style="fill:#133b71;fill-opacity:1" /><path
   d="M 15.506157,2.8765087 V 2.139237 c 0.0035,-0.2655642 -0.380573,-0.4353698 -0.847938,-0.433313 0,0 -1.78714,-0.00209 -1.780684,0 -0.465503,-0.00209 -0.856008,0.1677488 -0.85514,0.433313 v 0.7372717 h -1.674768 v 5.1288295 h 6.847329 V 2.8765087 h -1.688799 z m -0.628783,0 H 12.637147 V 2.1177542 h 2.240227 v 0.7587545 z"
   id="path5-7-6"
   inkscape:connector-curvature="0"
   style="fill:#133b71;fill-opacity:1" /><path
   d="m 17.809833,7.9965782 h 0.91859 c 0.631142,-7.087e-4 1.245522,-0.2865902 1.243783,-0.7848086 0,0 0.0019,-3.5572334 0,-3.568051 0.0019,-0.4407783 -0.59774,-0.775666 -1.243783,-0.7759713 h -0.91859 v 5.1288309 l 0,0 z"
   id="path7-4"
   inkscape:connector-curvature="0"
   style="fill:#133b71;fill-opacity:1" /></svg>