<?xml version="1.0" encoding="UTF-8" standalone="no"?>
<!-- Generator: Adobe Illustrator 14.0.0, SVG Export Plug-In . SVG Version: 6.00 Build 43363)  -->

<svg
   xmlns:dc="http://purl.org/dc/elements/1.1/"
   xmlns:cc="http://creativecommons.org/ns#"
   xmlns:rdf="http://www.w3.org/1999/02/22-rdf-syntax-ns#"
   xmlns:svg="http://www.w3.org/2000/svg"
   xmlns="http://www.w3.org/2000/svg"
   xmlns:sodipodi="http://sodipodi.sourceforge.net/DTD/sodipodi-0.dtd"
   xmlns:inkscape="http://www.inkscape.org/namespaces/inkscape"
   version="1.0"
   id="Layer_1"
   x="0px"
   y="0px"
   width="30"
   height="30"
   viewBox="0 0 29.999999 30"
   enable-background="new 0 0 63.491 100"
   xml:space="preserve"
   inkscape:version="0.48.1 "
   sodipodi:docname="privateroutine.svg"><metadata
   id="metadata15"><rdf:RDF><cc:Work
       rdf:about=""><dc:format>image/svg+xml</dc:format><dc:type
         rdf:resource="http://purl.org/dc/dcmitype/StillImage" /><dc:title /></cc:Work></rdf:RDF></metadata><defs
   id="defs13"><inkscape:perspective
     id="perspective2835"
     inkscape:persp3d-origin="0.5 : 0.33333333 : 1"
     inkscape:vp_z="1 : 0.5 : 1"
     inkscape:vp_y="0 : 1000 : 0"
     inkscape:vp_x="0 : 0.5 : 1"
     sodipodi:type="inkscape:persp3d" /><inkscape:perspective
     id="perspective2849"
     inkscape:persp3d-origin="0.5 : 0.33333333 : 1"
     inkscape:vp_z="1 : 0.5 : 1"
     inkscape:vp_y="0 : 1000 : 0"
     inkscape:vp_x="0 : 0.5 : 1"
     sodipodi:type="inkscape:persp3d" /></defs><sodipodi:namedview
   pagecolor="#ffffff"
   bordercolor="#666666"
   borderopacity="1"
   objecttolerance="10"
   gridtolerance="10"
   guidetolerance="10"
   inkscape:pageopacity="0"
   inkscape:pageshadow="2"
   inkscape:window-width="708"
   inkscape:window-height="480"
   id="namedview11"
   showgrid="false"
   inkscape:zoom="2.91"
   inkscape:cx="-21.862746"
   inkscape:cy="46.391704"
   inkscape:window-x="150"
   inkscape:window-y="150"
   inkscape:window-maximized="0"
   inkscape:current-layer="Layer_1" />




<path
   d="m 13.939427,3.2148558 c 0.01284,-1.186196 -0.96347,-2.1689245 -2.153015,-2.1560857 -1.215502,-0.012839 -2.1982299,0.9698897 -2.1918105,2.1560857 -0.00642,1.2155023 0.9763085,2.1884621 2.1918105,2.1918113 1.189545,-0.00335 2.165855,-0.9760299 2.153016,-2.1918113 l 0,0 z"
   id="path7"
   inkscape:connector-curvature="0"
   style="fill:#133b71;fill-opacity:1" /><path
   d="M 20.197798,15.124264 13.234687,6.6771528 C 12.872688,6.1407131 10.855318,5.914359 10.001815,6.5995617 l -3.3877754,6.1645903 0.8339656,5.210889 c 0.8470834,1.360916 2.5278532,-0.01619 2.0558869,-0.759723 l -0.5688159,-3.691163 1.4030598,-2.699503 -0.07117,6.620369 -3.0450348,9.51078 c -0.6011921,2.017372 2.372671,2.857757 2.9674428,0.914906 l 3.769313,-10.502998 -0.0388,-5.340673 -1.752221,-2.0720748 c -0.08401,-0.100199 -0.07117,-0.252032 0.03238,-0.339392 0.103548,-0.08401 0.252032,-0.07089 0.336322,0.02903 l 5.792823,6.8500728 c 0.931094,1.273835 2.799423,-0.08066 1.868608,-1.370405 z"
   id="path9"
   inkscape:connector-curvature="0"
   style="fill:#133b71;fill-opacity:1" /><path
   d="m 17.53402,26.842485 -3.420152,-8.511585 -1.396362,3.911656 1.997833,5.741189 c 0.808009,1.891216 3.646227,0.78568 2.818681,-1.14126 z"
   id="path11"
   inkscape:connector-curvature="0"
   style="fill:#133b71;fill-opacity:1" /></svg>