<?xml version="1.0" encoding="UTF-8" standalone="no"?>
<!-- Generator: Adobe Illustrator 14.0.0, SVG Export Plug-In . SVG Version: 6.00 Build 43363)  -->

<svg
   xmlns:dc="http://purl.org/dc/elements/1.1/"
   xmlns:cc="http://creativecommons.org/ns#"
   xmlns:rdf="http://www.w3.org/1999/02/22-rdf-syntax-ns#"
   xmlns:svg="http://www.w3.org/2000/svg"
   xmlns="http://www.w3.org/2000/svg"
   xmlns:sodipodi="http://sodipodi.sourceforge.net/DTD/sodipodi-0.dtd"
   xmlns:inkscape="http://www.inkscape.org/namespaces/inkscape"
   version="1.0"
   id="Layer_1"
   x="0px"
   y="0px"
   width="30"
   height="30"
   viewBox="0 0 29.999999 30"
   enable-background="new 0 0 63.491 100"
   xml:space="preserve"
   inkscape:version="0.48.1 "
   sodipodi:docname="privateaccelerated.svg"><metadata
   id="metadata15"><rdf:RDF><cc:Work
       rdf:about=""><dc:format>image/svg+xml</dc:format><dc:type
         rdf:resource="http://purl.org/dc/dcmitype/StillImage" /><dc:title /></cc:Work></rdf:RDF></metadata><defs
   id="defs13"><inkscape:perspective
     id="perspective2835"
     inkscape:persp3d-origin="0.5 : 0.33333333 : 1"
     inkscape:vp_z="1 : 0.5 : 1"
     inkscape:vp_y="0 : 1000 : 0"
     inkscape:vp_x="0 : 0.5 : 1"
     sodipodi:type="inkscape:persp3d" /><inkscape:perspective
     id="perspective2849"
     inkscape:persp3d-origin="0.5 : 0.33333333 : 1"
     inkscape:vp_z="1 : 0.5 : 1"
     inkscape:vp_y="0 : 1000 : 0"
     inkscape:vp_x="0 : 0.5 : 1"
     sodipodi:type="inkscape:persp3d" /><inkscape:perspective
     id="perspective2829"
     inkscape:persp3d-origin="0.5 : 0.33333333 : 1"
     inkscape:vp_z="1 : 0.5 : 1"
     inkscape:vp_y="0 : 1000 : 0"
     inkscape:vp_x="0 : 0.5 : 1"
     sodipodi:type="inkscape:persp3d" /></defs><sodipodi:namedview
   pagecolor="#ffffff"
   bordercolor="#666666"
   borderopacity="1"
   objecttolerance="10"
   gridtolerance="10"
   guidetolerance="10"
   inkscape:pageopacity="0"
   inkscape:pageshadow="2"
   inkscape:window-width="708"
   inkscape:window-height="623"
   id="namedview11"
   showgrid="false"
   inkscape:zoom="2.91"
   inkscape:cx="-21.862746"
   inkscape:cy="50"
   inkscape:window-x="200"
   inkscape:window-y="200"
   inkscape:window-maximized="0"
   inkscape:current-layer="Layer_1" />




<path
   d="m 22.086482,6.9345519 c 1.245043,0 2.253445,-1.0118827 2.253445,-2.2571946 0,-1.2453113 -1.008134,-2.2547852 -2.253446,-2.2547852 -1.245579,0 -2.257997,1.0092058 -2.257997,2.2545175 2.68e-4,1.2455796 1.01215,2.2574623 2.257997,2.2574623 z"
   id="path3"
   inkscape:connector-curvature="0"
   style="fill:#133b71;fill-opacity:1" /><path
   d="m 14.320951,8.6100475 -3.509466,4.0518135 c -0.206392,0.256718 -0.522806,0.415193 -0.8758945,0.415193 -0.6290803,0 -1.1352891,-0.507815 -1.1352891,-1.134218 0,-0.339436 0.146964,-0.642466 0.3828018,-0.850464 L 12.965885,6.73512 C 13.17549,6.485094 13.488692,6.3236746 13.841779,6.3236746 l 5.476748,-0.00134 c 0.403415,0 0.762928,0.1616872 1.02955,0.4178701 l 3.49287,3.4917983 2.893502,-2.8889518 c 0.203179,-0.1718602 0.466323,-0.2746547 0.753023,-0.2746547 0.649157,0 1.171964,0.5262861 1.171964,1.1722313 0,0.2834878 -0.09664,0.5396708 -0.263144,0.7420473 l -3.489924,3.5164279 c -1.058461,1.057123 -1.911334,0.159546 -1.911334,0.159546 l -2.14048,-2.151723 -3.346975,3.870049 3.066967,3.066433 c 0,0 0.645946,0.60017 0.275993,1.794888 l -1.718327,7.659255 c -0.136256,0.666022 -0.725717,1.165271 -1.428146,1.165271 -0.806294,0 -1.458663,-0.652637 -1.458663,-1.458664 0,-0.126619 0.01338,-0.250026 0.04684,-0.366204 l 1.411553,-6.284916 -3.482697,-3.386595 -2.996832,3.341087 c 0,0 -0.485597,0.599902 -1.7710624,0.552788 l -6.0774526,0.01017 c -0.6791394,0.01311 -1.2953708,-0.452403 -1.4482237,-1.140375 -0.1801579,-0.785682 0.3067769,-1.555302 1.0919233,-1.729838 0.1234063,-0.02891 0.2462778,-0.03854 0.366473,-0.03533 l 5.2277922,0.01526 7.7285882,-8.9607861 -2.021356,-0.00937 z"
   id="path5"
   inkscape:connector-curvature="0"
   style="fill:#133b71;fill-opacity:1" /></svg>