<?xml version="1.0" encoding="UTF-8" standalone="no"?>
<svg
   xmlns:dc="http://purl.org/dc/elements/1.1/"
   xmlns:cc="http://creativecommons.org/ns#"
   xmlns:rdf="http://www.w3.org/1999/02/22-rdf-syntax-ns#"
   xmlns:svg="http://www.w3.org/2000/svg"
   xmlns="http://www.w3.org/2000/svg"
   xmlns:sodipodi="http://sodipodi.sourceforge.net/DTD/sodipodi-0.dtd"
   xmlns:inkscape="http://www.inkscape.org/namespaces/inkscape"
   version="1.1"
   id="Layer_1"
   x="0px"
   y="0px"
   width="30"
   height="30"
   viewBox="0 0 30 30"
   enable-background="new 0 0 100 100"
   xml:space="preserve"
   inkscape:version="0.48.1 "
   sodipodi:docname="rapidmarch.svg"><metadata
   id="metadata17"><rdf:RDF><cc:Work
       rdf:about=""><dc:format>image/svg+xml</dc:format><dc:type
         rdf:resource="http://purl.org/dc/dcmitype/StillImage" /><dc:title /></cc:Work></rdf:RDF></metadata><defs
   id="defs15" /><sodipodi:namedview
   pagecolor="#ffffff"
   bordercolor="#666666"
   borderopacity="1"
   objecttolerance="10"
   gridtolerance="10"
   guidetolerance="10"
   inkscape:pageopacity="0"
   inkscape:pageshadow="2"
   inkscape:window-width="1348"
   inkscape:window-height="824"
   id="namedview13"
   showgrid="false"
   inkscape:zoom="2.91"
   inkscape:cx="-4.1237144"
   inkscape:cy="50"
   inkscape:window-x="100"
   inkscape:window-y="100"
   inkscape:window-maximized="0"
   inkscape:current-layer="Layer_1" />
<path
   d="M 27.794691,1.491739 H 15.022482 c -9.8805817,0 -11.8893377,7.4873567 -11.8893377,10.745565 l 2.7402636,1.410725 c 0,-4.4542697 4.2470371,-8.5504917 10.0245161,-8.5504917 2.933461,0 5.750783,1.6625421 7.554783,3.3253595 L 27.794691,1.491739 z"
   id="path3"
   inkscape:connector-curvature="0"
   style="fill:#133b71;fill-opacity:1" />
<path
   d="m 22.845319,9.0811985 -10.408433,4.5225225 -0.115863,1.55466 H 24.99223 c 0,-1.035064 0.0267,-3.828443 -2.146911,-6.0771825 z"
   id="path5"
   inkscape:connector-curvature="0"
   style="fill:#133b71;fill-opacity:1" />
<polygon
   points="35.754,83.654 43.02,88.384 50.275,83.654 47.742,52.816 38.287,52.816 "
   id="polygon7"
   transform="matrix(0.27520976,0,0,0.27520976,1.7034296,1.574302)"
   style="fill:#133b71;fill-opacity:1" />
<path
   d="M 3.2517597,24.599727 H 10.420149 L 11.418885,12.988076 21.654211,8.4121636 C 20.146062,6.9887787 18.032451,6.1147125 15.65684,6.1147125 c -5.486582,0 -8.8821202,4.3860185 -8.8821202,8.4486645 l -0.1343023,1.622362 -3.3886578,8.413988 z"
   id="path9"
   inkscape:connector-curvature="0"
   style="fill:#133b71;fill-opacity:1" />
<path
   d="m 18.098226,29.012715 1.177072,-2.813469 h 2.706963 c 1.153955,0 1.104692,-1.103041 1.104692,-1.103041 L 22.755876,22.93113 h 0.757652 l -0.331352,-1.907479 h 1.221656 c 0.512165,0 0.277411,-0.710592 0.277411,-0.710592 -0.117789,-0.598306 -0.865809,-2.817322 -1.327611,-4.242908 h -7.534418 l 0.733709,8.923125 c 0.01128,0.151091 -0.05917,0.296952 -0.185766,0.37924 l -2.824203,1.862619 -2.395976,-1.56842 -3.7981706,0.0041 -1.4085236,3.341872 H 18.098226 z"
   id="path11"
   inkscape:connector-curvature="0"
   style="fill:#133b71;fill-opacity:1" />
</svg>