<?xml version="1.0" encoding="UTF-8" standalone="no"?>
<!-- Generator: Adobe Illustrator 14.0.0, SVG Export Plug-In . SVG Version: 6.00 Build 43363)  -->

<svg
   xmlns:dc="http://purl.org/dc/elements/1.1/"
   xmlns:cc="http://creativecommons.org/ns#"
   xmlns:rdf="http://www.w3.org/1999/02/22-rdf-syntax-ns#"
   xmlns:svg="http://www.w3.org/2000/svg"
   xmlns="http://www.w3.org/2000/svg"
   xmlns:sodipodi="http://sodipodi.sourceforge.net/DTD/sodipodi-0.dtd"
   xmlns:inkscape="http://www.inkscape.org/namespaces/inkscape"
   version="1.0"
   id="Layer_1"
   x="0px"
   y="0px"
   width="30"
   height="30"
   viewBox="0 0 29.999999 30"
   enable-background="new 0 0 63.491 100"
   xml:space="preserve"
   inkscape:version="0.48.1 "
   sodipodi:docname="slowover.svg"><metadata
   id="metadata15"><rdf:RDF><cc:Work
       rdf:about=""><dc:format>image/svg+xml</dc:format><dc:type
         rdf:resource="http://purl.org/dc/dcmitype/StillImage" /><dc:title /></cc:Work></rdf:RDF></metadata><defs
   id="defs13"><inkscape:perspective
     id="perspective4260"
     inkscape:persp3d-origin="0.5 : 0.33333333 : 1"
     inkscape:vp_z="1 : 0.5 : 1"
     inkscape:vp_y="0 : 1000 : 0"
     inkscape:vp_x="0 : 0.5 : 1"
     sodipodi:type="inkscape:persp3d" /><inkscape:perspective
     id="perspective4422"
     inkscape:persp3d-origin="0.5 : 0.33333333 : 1"
     inkscape:vp_z="1 : 0.5 : 1"
     inkscape:vp_y="0 : 1000 : 0"
     inkscape:vp_x="0 : 0.5 : 1"
     sodipodi:type="inkscape:persp3d" /></defs><sodipodi:namedview
   pagecolor="#ffffff"
   bordercolor="#666666"
   borderopacity="1"
   objecttolerance="10"
   gridtolerance="10"
   guidetolerance="10"
   inkscape:pageopacity="0"
   inkscape:pageshadow="2"
   inkscape:window-width="1252"
   inkscape:window-height="814"
   id="namedview11"
   showgrid="false"
   inkscape:zoom="4.5154276"
   inkscape:cx="14.454135"
   inkscape:cy="2.861228"
   inkscape:window-x="75"
   inkscape:window-y="75"
   inkscape:window-maximized="0"
   inkscape:current-layer="Layer_1"
   showguides="true"
   inkscape:guide-bbox="true" />




<path
   style="fill:#133b71;fill-opacity:0.99999653;stroke:none"
   d="m 1.294493,13.966841 c -0.43413648,1.415963 0.011756,2.911612 0.1556144,4.343284 0.580747,3.373088 3.2050793,8.132148 5.7591523,10.437802 l 16.3977333,0.03141 c 2.084657,-3.268326 4.480974,-6.468726 5.46875,-10.28125 -0.59375,0 -1.1875,0 -1.78125,0 -1.02949,0.804001 -6.105205,3.498284 -4.62922,1.951543 0.58226,-0.281135 1.621686,-1.831305 0.425937,-1.727352 -0.98184,0.681133 -1.565652,2.125599 -3.012539,1.869217 -3.448067,0.268346 -6.906419,0.0065 -10.3466777,-0.249658 0.3988847,-1.090563 0.09847,-2.741698 -1.379233,-2.368546 -1.505248,-0.22485 -2.995407,-0.598344 -4.505538,-0.734452 C 2.2993321,17.440682 2.5441686,15.9139 2.1740459,14.94804 2.0019515,14.53774 1.723099,14.135909 1.294493,13.966841 z m 1.375,3.40625 c 1.0551773,-0.202247 0.4272233,1.580689 -0.03925,0.544625 -0.028148,-0.160013 -0.1494816,-0.431897 0.03925,-0.544625 z m 1.0937503,0.15625 c 1.167422,-0.117632 0.13187,1.626376 -0.118071,0.461454 -0.0042,-0.146347 -0.06583,-0.391284 0.118071,-0.461454 z m 1.125,0.1875 c 0.990059,0.08176 -0.183117,1.500771 -0.183438,0.295153 -0.05561,-0.130952 -0.0068,-0.363627 0.183438,-0.295153 z m 0.8125,0.15625 c 1.054616,-0.211111 0.659724,1.552192 -0.05792,0.593956 -0.07328,-0.188795 -0.08596,-0.431685 0.05792,-0.593956 z m 1.15625,0.15625 c 1.14643,-0.09308 0.249859,1.613296 -0.117043,0.488609 -0.01116,-0.151108 -0.08741,-0.424258 0.117043,-0.488609 z m 1.0625,0.15625 c 1.113033,-0.101848 0.20956,1.627367 -0.11848,0.493466 -0.01129,-0.158157 -0.06411,-0.405912 0.11848,-0.493466 z m 1.15625,0.1875 c 0.9250877,0.228138 -0.347761,1.492343 -0.216998,0.294572 -0.02281,-0.12839 0.04531,-0.324499 0.216998,-0.294572 z m -6.3437503,0.1875 c 1.8009013,0.342891 3.6150253,0.56387 5.4104213,0.932875 1.100914,-0.263373 1.678852,0.724771 0.63788,1.046527 0.423641,1.567647 2.4237827,0.823747 3.6002597,1.10591 1.093565,0.150939 2.373386,-0.07755 3.364552,0.213388 -1.294456,0.379105 -2.596466,-0.19603 -3.908747,-0.135217 -0.861074,-0.09523 -1.807937,0.143896 -2.6006387,-0.253809 -0.632207,-0.963696 -1.455789,-1.547315 -2.628287,-1.508263 -1.277345,-0.259502 -2.56494,-0.46441 -3.8441903,-0.713911 0.048751,-0.233625 -0.1744114,-0.464719 -0.03125,-0.6875 z m 17.802954,3.125 c -0.392181,0.33874 -4.3117,0.181435 -2.956425,0.098 0.302636,-0.01406 2.654022,-0.07922 2.956425,-0.098 z m -17.677954,2.1875 -1.7376531,1.331623 1.4490792,4.090988 c 0,0 0.8471272,-2.423246 1.4700752,-3.711859 C 3.7047993,25.157234 2.856993,23.873091 2.856993,23.873091 z"
   id="path3908-1"
   inkscape:connector-curvature="0"
   sodipodi:nodetypes="ccccccccccccccccccccccccccccccccccccccccccccccccccccc" /><path
   style="color:#000000;fill:#133b71;fill-opacity:0.99999653;fill-rule:nonzero;stroke:none;stroke-width:2.70000005;marker:none;visibility:visible;display:inline;overflow:visible;enable-background:accumulate"
   d="m 15.917541,0.96126442 0,2.93021588 -1.378924,0.0043 0,0.228384 -7.1919567,0 0,1.254824 0.827355,0 0.0043,12.2931167 7.7392167,-0.0043 0,2.775523 1.187491,0.0046 0.0087,-2.780114 7.176444,0 c 0.555236,-4.008867 1.232178,-7.9591437 0,-12.2888077 l 0.861827,0 0,-1.254824 -6.528348,0 0,-0.228384 -1.509923,-0.0043 0,-2.93021718 z m -6.9247947,4.41773388 5.5458647,0 0,0.344731 1.378923,0.0087 0,11.1210317 -6.9247877,0 c 0.673435,-3.886016 1.1452797,-7.7537037 0,-11.4743817 z m 9.6309307,0 4.847784,0 0,11.4743797 -6.357708,0 0,-11.1210307 1.509924,-0.0087 z"
   id="rect3059"
   inkscape:connector-curvature="0"
   sodipodi:nodetypes="cccccccccccccccccccccccccccccccccccc" /><path
   style="color:#000000;fill:#133b71;fill-opacity:0.99999653;fill-rule:nonzero;stroke:none;stroke-width:2.70000005;marker:none;visibility:visible;display:inline;overflow:visible;enable-background:accumulate"
   d="m 27.354863,11.148071 -1.125,2.125 -0.40625,0 c -0.11945,0 -0.21875,0.0076 -0.21875,0.03125 l 0,0.78125 c 0,0.01701 0.08375,0.02439 0.15625,0.03125 l -0.6875,1.3125 -0.365802,2.66901 2.209599,-3.98151 1.5625,0 0,3.28125 -2.927785,0 -0.322934,0.53125 3.594469,0 c 0.11945,0 0.21875,-0.0076 0.21875,-0.03125 l 0,-0.1875 0,-0.28125 0,-3.3125 0.03125,0 c 0.11945,0 0.21875,-0.0076 0.21875,-0.03125 l 0,-0.78125 c 0,-0.02363 -0.0993,-0.03125 -0.21875,-0.03125 l -1.6875,0 0.875,-1.65625 z"
   id="rect3127"
   inkscape:connector-curvature="0"
   sodipodi:nodetypes="ccsssccccccccsscccssssccc" /></svg>